<svg xmlns="http://www.w3.org/2000/svg" xmlns:xlink="http://www.w3.org/1999/xlink" viewBox="0 0 1920 1080"><defs><style>.cls-1{fill:none;}.cls-2{isolation:isolate;}.cls-3{clip-path:url(#clip-path);}.cls-4{clip-path:url(#clip-path-2);}.cls-5{fill:#a16e53;}.cls-6{fill:#b0805f;}.cls-7{fill:#b38a68;}.cls-8{fill:#f86f6b;}.cls-9{clip-path:url(#clip-path-3);}.cls-10{fill:#241734;}.cls-11{fill:#7351a8;}.cls-12{fill:#442d5d;}.cls-13{fill:#fff;}.cls-14{fill:#bcbdbe;}.cls-15{fill:#b5abb6;}.cls-16{fill:#fffefb;}.cls-17{clip-path:url(#clip-path-4);}.cls-18{fill:#cdc3d0;opacity:0.5;}.cls-18,.cls-22{mix-blend-mode:multiply;}.cls-19{fill:#ffce4d;}.cls-20{fill:#f8950d;}.cls-21{fill:#f5bf1c;}.cls-22{fill:#828c96;}.cls-23{fill:#f7eae6;}.cls-24{fill:#f8a52f;}.cls-25{fill:#703e03;}.cls-26{fill:#321951;}.cls-27{fill:#a3a3a3;}.cls-28{fill:#a9a9a9;}.cls-29{fill:#ededed;}.cls-30{fill:#eaeaea;}.cls-31{fill:#101014;}</style><clipPath id="clip-path"><rect class="cls-1" x="-1940" width="1920" height="1080"/></clipPath><clipPath id="clip-path-2"><polygon class="cls-1" points="-2476.05 1341.27 -1112.5 548.87 6.3 1187.59 -1369.83 1979.29 -2476.05 1341.27"/></clipPath><clipPath id="clip-path-3"><rect class="cls-1" width="1920" height="1080"/></clipPath><clipPath id="clip-path-4"><path class="cls-1" d="M1334.7,601.73s13.83,8,20.86,8.63a10.33,10.33,0,0,0,5-.86c1.69-.85,2.71-2.55,2.06-6l-3-14.82s-13.37-11.75-19.29-4.92S1332.7,597.2,1334.7,601.73Z"/></clipPath></defs><g class="cls-2"><g id="BAC"><g class="cls-3"><g class="cls-4"><polygon class="cls-5" points="-13.53 1008.94 66.96 962.17 -1.23 922.8 -81.71 969.57 -13.53 1008.94"/><polygon class="cls-6" points="122.8 1087.65 203.28 1040.88 135.12 1001.52 54.64 1048.29 122.8 1087.65"/><polygon class="cls-6" points="-141.89 1083.54 -73.73 1122.89 54.64 1048.29 135.12 1001.52 66.96 962.17 -13.53 1008.94 -141.89 1083.54"/><polygon class="cls-7" points="-5.57 1162.25 62.6 1201.6 190.96 1127 271.45 1080.23 203.28 1040.88 122.8 1087.65 -5.57 1162.25"/><polygon class="cls-6" points="-133.96 1236.86 -5.57 1162.25 122.8 1087.65 54.64 1048.29 -73.73 1122.89 -202.12 1197.51 -133.96 1236.86"/></g></g></g><g id="Hours_to_Minute" data-name="Hours to Minute"><rect class="cls-8" width="1920" height="1080"/><g class="cls-9"><polygon class="cls-10" points="0 1027.08 1383.64 225.31 1920 535.08 1920 1080 0 1080 0 1027.08"/><g class="cls-2"><path class="cls-11" d="M1616.3,711.52c10,5.75,10,15.07.12,20.82L972.53,1106.52c-9.89,5.75-26,5.75-35.93,0L607.83,916.71c-10-5.75-10-15.07-.11-20.81L1251.6,521.71c9.89-5.75,26-5.75,35.93,0Z"/></g><g class="cls-2"><path class="cls-12" d="M1614.2,701c10,5.74,10,15.06.11,20.81L970.43,1096c-9.89,5.74-26,5.74-35.93,0L605.73,906.2c-10-5.75-10-15.06-.11-20.81L1249.5,511.2c9.89-5.74,26-5.74,35.93,0Z"/></g><g class="cls-2"><polygon class="cls-13" points="827.96 646.69 663.08 742.4 732.04 782.22 896.92 686.5 827.96 646.69"/><path class="cls-14" d="M897.85,687.72a3.14,3.14,0,0,0-.51-.85,1.49,1.49,0,0,0-.41-.36L732,782.21a1.6,1.6,0,0,1,.42.37,3.42,3.42,0,0,1,.51.85c1.13,2.58,1,8-.24,8.73l164.89-95.71C898.9,695.7,899,690.3,897.85,687.72Z"/><path class="cls-14" d="M814.6,630.82c-3.07-6.94-3.66-13.64-1.49-18.22l44.83-99.18L693.06,609.13l-44.84,99.18c-2.16,4.58-1.57,11.28,1.47,18.17a39.48,39.48,0,0,0,6.29,10,28.79,28.79,0,0,0,7.1,5.94L828,646.69a28.79,28.79,0,0,1-7.1-5.94A39,39,0,0,1,814.6,630.82Z"/><path class="cls-14" d="M732,782.21l-69-39.81c-5.54-3.2-10.3-9-13.37-15.87s-3.66-13.63-1.49-18.22l44.84-99.18.31-1.77.28-96.57a9.19,9.19,0,0,0-4.3-7.44c-2.31-1.33-4.16-.28-4.17,2.55l-.27,95.69L640.23,700c-3.1,7.06-2.21,17.5,2.39,27.95,4.44,10.36,12.12,19.58,20.43,24.37l69,39.82C734.32,793.45,734.35,783.55,732,782.21Z"/><path class="cls-15" d="M857.79,411.78a9.78,9.78,0,0,0-1.59-2.49,7.87,7.87,0,0,0-2-1.65,2.91,2.91,0,0,0-2.92-.3L686.43,503.05a2.91,2.91,0,0,1,2.92.3,8,8,0,0,1,2,1.64,9.71,9.71,0,0,1,1.58,2.5,8.17,8.17,0,0,1,.75,3.3l-.28,96.57-.31,1.77,164.88-95.71.31-1.77.28-96.57A8.32,8.32,0,0,0,857.79,411.78Z"/></g><g id="_1" data-name="1"><polygon class="cls-14" points="428.26 811.91 415.07 804.25 414.87 288.7 428.06 296.37 428.26 811.91"/><polygon class="cls-16" points="428.06 296.37 414.87 288.7 1101.08 -107.48 1114.28 -99.81 428.06 296.37"/><polygon class="cls-13" points="1114.28 -99.81 1114.48 415.73 428.26 811.91 428.06 296.37 1114.28 -99.81"/><polygon class="cls-10" points="431.07 298.76 1111.16 -93.89 1111.06 352.7 430.97 745.35 431.07 298.76"/></g><path class="cls-14" d="M780,918.58v7.3c0,1.39.92,2.79,2.76,3.85l137,79.13a14.77,14.77,0,0,0,13.36,0l427.43-246.78c1.84-1.07,2.77-2.46,2.77-3.86v-7.07Z"/><path class="cls-13" d="M1360.58,755,933.15,1001.75a14.77,14.77,0,0,1-13.36,0l-137-79.12c-3.69-2.13-3.69-5.58,0-7.71l427.44-246.79a14.81,14.81,0,0,1,13.35,0l137,79.13C1364.27,749.39,1364.27,752.84,1360.58,755Z"/><path class="cls-14" d="M1149.5,718.36a1.51,1.51,0,0,1,0-.6,1.51,1.51,0,0,1,0-.6,2,2,0,0,1,1.18-2.09l17.56-10.13a6.78,6.78,0,0,1,6.17,0l14.76,8.52a1.94,1.94,0,0,1,1.18,2.08,1.51,1.51,0,0,1,0,.6,1.51,1.51,0,0,1,0,.6,1.94,1.94,0,0,1-1.18,2.09L1171.62,729a6.86,6.86,0,0,1-6.18,0l-14.76-8.52A2,2,0,0,1,1149.5,718.36ZM1179,704.08l14.76,8.52a6.86,6.86,0,0,0,6.18,0l17.55-10.14a1.94,1.94,0,0,0,1.18-2.08,1.52,1.52,0,0,0,0-.6,1.52,1.52,0,0,0,0-.6,1.94,1.94,0,0,0-1.18-2.08l-14.76-8.52a6.78,6.78,0,0,0-6.17,0L1179,698.71a2,2,0,0,0-1.18,2.08,1.51,1.51,0,0,0,0,.6,1.51,1.51,0,0,0,0,.6A2,2,0,0,0,1179,704.08Zm-56.68,32.72,14.77,8.52a6.78,6.78,0,0,0,6.17,0l17.55-10.13a1.94,1.94,0,0,0,1.18-2.08,1.51,1.51,0,0,0,0-.6,1.51,1.51,0,0,0,0-.6,1.94,1.94,0,0,0-1.18-2.09l-14.76-8.52a6.84,6.84,0,0,0-6.17,0l-17.56,10.14a2,2,0,0,0-1.18,2.08,1.51,1.51,0,0,0,0,.6,1.51,1.51,0,0,0,0,.6A2,2,0,0,0,1122.34,736.8ZM893.89,928l14.76,8.53a6.86,6.86,0,0,0,6.18,0l17.55-10.14a1.94,1.94,0,0,0,1.18-2.08,1.51,1.51,0,0,0,0-.6,1.52,1.52,0,0,0,0-.6,1.94,1.94,0,0,0-1.18-2.08l-14.76-8.53a6.86,6.86,0,0,0-6.18,0l-17.55,10.14a2,2,0,0,0-1.18,2.08,1.52,1.52,0,0,0,0,.6,1.52,1.52,0,0,0,0,.6A2,2,0,0,0,893.89,928Zm61.86-95.18,14.76,8.52a6.8,6.8,0,0,0,6.18,0l17.55-10.13a1.94,1.94,0,0,0,1.18-2.08,1.51,1.51,0,0,0,0-.6,1.51,1.51,0,0,0,0-.6,1.93,1.93,0,0,0-1.18-2.08l-14.76-8.53a6.84,6.84,0,0,0-6.17,0l-17.56,10.14a2,2,0,0,0-1.18,2.08,1.52,1.52,0,0,0,0,.6,1.52,1.52,0,0,0,0,.6A2,2,0,0,0,955.75,832.81Zm56.68-32.72,14.76,8.52a6.86,6.86,0,0,0,6.18,0l17.55-10.13a1.94,1.94,0,0,0,1.18-2.09,1.51,1.51,0,0,0,0-.6,1.51,1.51,0,0,0,0-.6,1.94,1.94,0,0,0-1.18-2.08l-14.76-8.52a6.78,6.78,0,0,0-6.17,0l-17.56,10.13a2,2,0,0,0-1.18,2.09,1.51,1.51,0,0,0,0,.6,1.47,1.47,0,0,0,0,.59A2,2,0,0,0,1012.43,800.09Zm56.68-32.73,14.76,8.53a6.86,6.86,0,0,0,6.18,0l26.69-15.41a2,2,0,0,0,1.18-2.09,1.51,1.51,0,0,0,0-.6,1.51,1.51,0,0,0,0-.6,2,2,0,0,0-1.18-2.08L1102,746.59a6.8,6.8,0,0,0-6.18,0L1069.11,762a2,2,0,0,0-1.18,2.08,1.52,1.52,0,0,0,0,.6,1.51,1.51,0,0,0,0,.6A2,2,0,0,0,1069.11,767.36Zm-28.34,16.37,14.76,8.52a6.86,6.86,0,0,0,6.18,0l17.55-10.14a1.94,1.94,0,0,0,1.18-2.08,1.52,1.52,0,0,0,0-.6,1.51,1.51,0,0,0,0-.6,1.94,1.94,0,0,0-1.18-2.08l-14.76-8.52a6.8,6.8,0,0,0-6.18,0l-17.55,10.13a2,2,0,0,0-1.18,2.08,1.51,1.51,0,0,0,0,.6,1.51,1.51,0,0,0,0,.6A2,2,0,0,0,1040.77,783.73Zm-56.68,32.72L998.85,825a6.8,6.8,0,0,0,6.18,0l17.55-10.13a1.94,1.94,0,0,0,1.18-2.09,1.47,1.47,0,0,0,0-.59,1.51,1.51,0,0,0,0-.6,1.94,1.94,0,0,0-1.18-2.09L1007.82,801a6.86,6.86,0,0,0-6.18,0l-17.55,10.13a2,2,0,0,0-1.18,2.09,1.51,1.51,0,0,0,0,.6,1.51,1.51,0,0,0,0,.6A2,2,0,0,0,984.09,816.45Zm120.55-39.56,14.76,8.52a6.86,6.86,0,0,0,6.18,0l17.55-10.13a2,2,0,0,0,1.18-2.09,1.51,1.51,0,0,0,0-.6,1.51,1.51,0,0,0,0-.6,1.94,1.94,0,0,0-1.18-2.08l-14.76-8.52a6.8,6.8,0,0,0-6.18,0l-17.55,10.13a2,2,0,0,0-1.18,2.09,1.51,1.51,0,0,0,0,.6,1.47,1.47,0,0,0,0,.59A2,2,0,0,0,1104.64,776.89ZM877.92,907.78l14.77,8.53a6.84,6.84,0,0,0,6.17,0l17.55-10.14a1.94,1.94,0,0,0,1.18-2.08,1.52,1.52,0,0,0,0-.6,1.52,1.52,0,0,0,0-.6,1.94,1.94,0,0,0-1.18-2.08l-14.76-8.52a6.78,6.78,0,0,0-6.17,0l-17.56,10.13a2,2,0,0,0-1.18,2.08,1.51,1.51,0,0,0,0,.6,1.51,1.51,0,0,0,0,.6A2,2,0,0,0,877.92,907.78ZM1076.3,793.25l14.76,8.52a6.8,6.8,0,0,0,6.18,0l17.55-10.13a1.94,1.94,0,0,0,1.18-2.08,1.51,1.51,0,0,0,0-.6,1.51,1.51,0,0,0,0-.6,1.94,1.94,0,0,0-1.18-2.09L1100,777.75a6.84,6.84,0,0,0-6.17,0l-17.56,10.13a2,2,0,0,0-1.18,2.09,1.51,1.51,0,0,0,0,.6,1.51,1.51,0,0,0,0,.6A2,2,0,0,0,1076.3,793.25ZM1048,809.61l14.76,8.52a6.8,6.8,0,0,0,6.18,0L1086.45,808a1.94,1.94,0,0,0,1.18-2.08,1.51,1.51,0,0,0,0-.6,1.51,1.51,0,0,0,0-.6,1.94,1.94,0,0,0-1.18-2.08l-14.76-8.53a6.84,6.84,0,0,0-6.17,0L1048,804.25a2,2,0,0,0-1.18,2.08,1.52,1.52,0,0,0,0,.6,1.51,1.51,0,0,0,0,.6A2,2,0,0,0,1048,809.61ZM1019.62,826l14.76,8.53a6.86,6.86,0,0,0,6.18,0l17.55-10.14a1.94,1.94,0,0,0,1.18-2.08,1.52,1.52,0,0,0,0-.6,1.51,1.51,0,0,0,0-.6,1.94,1.94,0,0,0-1.18-2.08l-14.76-8.53a6.84,6.84,0,0,0-6.17,0l-17.56,10.14a2,2,0,0,0-1.18,2.08,1.52,1.52,0,0,0,0,.6,1.51,1.51,0,0,0,0,.6A2,2,0,0,0,1019.62,826ZM906.26,891.42,921,899.94a6.8,6.8,0,0,0,6.18,0l17.55-10.13a1.94,1.94,0,0,0,1.18-2.08,1.22,1.22,0,0,0,0-.6,1.22,1.22,0,0,0,0-.6,1.94,1.94,0,0,0-1.18-2.08L930,875.92a6.84,6.84,0,0,0-6.17,0l-17.56,10.14a1.94,1.94,0,0,0-1.17,2.08,1.22,1.22,0,0,0,0,.6,1.22,1.22,0,0,0,0,.6A1.94,1.94,0,0,0,906.26,891.42Zm28.34-16.36,14.77,8.52a6.78,6.78,0,0,0,6.17,0l17.55-10.13a1.94,1.94,0,0,0,1.18-2.08,1.51,1.51,0,0,0,0-.6,1.51,1.51,0,0,0,0-.6,1.94,1.94,0,0,0-1.18-2.09c-21.71-12.54-14.38-12.3-38.49,1.62a2,2,0,0,0-1.18,2.08,1.51,1.51,0,0,0,0,.6,1.51,1.51,0,0,0,0,.6A2,2,0,0,0,934.6,875.06Zm28.34-16.36,14.76,8.52a6.8,6.8,0,0,0,6.18,0l17.55-10.13a1.94,1.94,0,0,0,1.18-2.09,1.51,1.51,0,0,0,0-.6,1.51,1.51,0,0,0,0-.6,1.94,1.94,0,0,0-1.18-2.08l-14.76-8.52a6.78,6.78,0,0,0-6.17,0l-17.56,10.13a2,2,0,0,0-1.18,2.09,1.51,1.51,0,0,0,0,.6,1.51,1.51,0,0,0,0,.6A2,2,0,0,0,962.94,858.7Zm28.34-16.36c14.49,8.36,17,10.79,20.94,8.52l17.55-10.14a1.94,1.94,0,0,0,1.18-2.08,1.52,1.52,0,0,0,0-.6,1.51,1.51,0,0,0,0-.6,1.94,1.94,0,0,0-1.18-2.08L1015,826.84a6.78,6.78,0,0,0-6.17,0L991.28,837a2,2,0,0,0-1.18,2.08,1.51,1.51,0,0,0,0,.6,1.51,1.51,0,0,0,0,.6A2,2,0,0,0,991.28,842.34ZM940.75,950.19a1.51,1.51,0,0,0,0-.6,1.51,1.51,0,0,0,0-.6,1.94,1.94,0,0,0-1.18-2.09l-14.76-8.52a6.84,6.84,0,0,0-6.17,0L892,953.79a1.94,1.94,0,0,0-1.18,2.08,1.22,1.22,0,0,0,0,.6,1.22,1.22,0,0,0,0,.6,1.94,1.94,0,0,0,1.18,2.08l14.76,8.53a6.84,6.84,0,0,0,6.17,0l26.69-15.41A1.94,1.94,0,0,0,940.75,950.19Zm-35.53-9.53a1.52,1.52,0,0,0,0-.6,1.51,1.51,0,0,0,0-.6,1.94,1.94,0,0,0-1.18-2.08l-14.76-8.52a6.8,6.8,0,0,0-6.18,0L865.55,939a2,2,0,0,0-1.18,2.08,1.51,1.51,0,0,0,0,.6,1.51,1.51,0,0,0,0,.6,2,2,0,0,0,1.18,2.09l14.76,8.52a6.86,6.86,0,0,0,6.18,0L904,942.74A1.94,1.94,0,0,0,905.22,940.66Zm22.19-91.49c21.28,12.29,13.92,12.58,38.49-1.61a1.94,1.94,0,0,0,1.18-2.08,1.52,1.52,0,0,0,0-.6,1.52,1.52,0,0,0,0-.6,1.94,1.94,0,0,0-1.18-2.08l-14.76-8.53a6.84,6.84,0,0,0-6.17,0l-17.56,10.14a2,2,0,0,0-1.18,2.08,1.51,1.51,0,0,0,0,.6,1.51,1.51,0,0,0,0,.6A2,2,0,0,0,927.41,849.17Zm312.18-71.28a1.51,1.51,0,0,0,0-.6,1.51,1.51,0,0,0,0-.6,2,2,0,0,0-1.18-2.08l-14.76-8.52a6.8,6.8,0,0,0-6.18,0l-17.55,10.13a1.94,1.94,0,0,0-1.18,2.09,1.51,1.51,0,0,0,0,.6,1.51,1.51,0,0,0,0,.6,1.94,1.94,0,0,0,1.18,2.08l14.76,8.52a6.8,6.8,0,0,0,6.18,0L1238.41,780A2,2,0,0,0,1239.59,777.89ZM889.25,920.45a1.22,1.22,0,0,0,0-.6,1.22,1.22,0,0,0,0-.6,1.94,1.94,0,0,0-1.17-2.08l-14.77-8.52a6.78,6.78,0,0,0-6.17,0l-26.69,15.41a1.94,1.94,0,0,0-1.18,2.08,1.51,1.51,0,0,0,0,.6,1.51,1.51,0,0,0,0,.6,1.94,1.94,0,0,0,1.18,2.08l14.76,8.52a6.8,6.8,0,0,0,6.18,0l26.69-15.41A1.94,1.94,0,0,0,889.25,920.45Zm9.82-54.91,14.76,8.52a6.86,6.86,0,0,0,6.18,0l17.55-10.14a1.94,1.94,0,0,0,1.18-2.08,1.52,1.52,0,0,0,0-.6,1.51,1.51,0,0,0,0-.6,1.94,1.94,0,0,0-1.18-2.08L922.8,850a6.78,6.78,0,0,0-6.17,0l-17.56,10.13a2,2,0,0,0-1.18,2.08,1.51,1.51,0,0,0,0,.6,1.51,1.51,0,0,0,0,.6A2,2,0,0,0,899.07,865.54ZM870.73,881.9l14.76,8.52a6.8,6.8,0,0,0,6.18,0l17.55-10.13a1.94,1.94,0,0,0,1.18-2.09,1.51,1.51,0,0,0,0-.6,1.51,1.51,0,0,0,0-.6,1.94,1.94,0,0,0-1.18-2.08l-14.76-8.52a6.78,6.78,0,0,0-6.17,0l-17.56,10.13a2,2,0,0,0-1.18,2.09,1.51,1.51,0,0,0,0,.6,1.47,1.47,0,0,0,0,.59A2,2,0,0,0,870.73,881.9Zm-17,29a1.51,1.51,0,0,0,0-.6,1.52,1.52,0,0,0,0-.6,1.94,1.94,0,0,0-1.18-2.08l-14.76-8.53a6.84,6.84,0,0,0-6.17,0l-17.56,10.14a1.94,1.94,0,0,0-1.17,2.08,1.22,1.22,0,0,0,0,.6,1.22,1.22,0,0,0,0,.6,1.94,1.94,0,0,0,1.17,2.08l14.77,8.52a6.78,6.78,0,0,0,6.17,0L852.54,913A1.94,1.94,0,0,0,853.72,910.93Zm-11.33-12.67,14.76,8.52a6.8,6.8,0,0,0,6.18,0l17.55-10.13a1.94,1.94,0,0,0,1.18-2.08,1.51,1.51,0,0,0,0-.6,1.51,1.51,0,0,0,0-.6,1.94,1.94,0,0,0-1.18-2.09l-14.76-8.52a6.84,6.84,0,0,0-6.17,0L842.39,892.9a2,2,0,0,0-1.18,2.08,1.52,1.52,0,0,0,0,.6,1.51,1.51,0,0,0,0,.6A2,2,0,0,0,842.39,898.26Zm479.78-139.33a1.94,1.94,0,0,0-1.17-2.08l-14.77-8.53a6.84,6.84,0,0,0-6.17,0l-17.56,10.14a1.94,1.94,0,0,0-1.17,2.08,1.22,1.22,0,0,0,0,.6,1.22,1.22,0,0,0,0,.6,1.94,1.94,0,0,0,1.17,2.08l14.77,8.52a6.78,6.78,0,0,0,6.17,0L1321,762.21a1.94,1.94,0,0,0,1.17-2.08,1.22,1.22,0,0,0,0-.6A1.22,1.22,0,0,0,1322.17,758.93Zm-102.34-27.38-19.44-11.22a8.49,8.49,0,0,0-7.67,0L1148.24,746a2.45,2.45,0,0,0-1.49,2.51,2,2,0,0,0,0,.6,2,2,0,0,0,0,.6,2.46,2.46,0,0,0,1.49,2.52L1187,774.62a8.43,8.43,0,0,0,7.67,0L1268.46,732a2.46,2.46,0,0,0,1.49-2.52,1.52,1.52,0,0,0,0-.6,1.52,1.52,0,0,0,0-.6,2.46,2.46,0,0,0-1.49-2.52L1254,717.46a5.69,5.69,0,0,0-5.1,0l-24.79,14.11A4.78,4.78,0,0,1,1219.83,731.55Zm-25.2,68.09-14.76-8.52a6.86,6.86,0,0,0-6.18,0l-17.55,10.14a1.94,1.94,0,0,0-1.18,2.08,1.51,1.51,0,0,0,0,.6,1.51,1.51,0,0,0,0,.6,2,2,0,0,0,1.18,2.08l14.76,8.52a6.8,6.8,0,0,0,6.18,0L1194.63,805a2,2,0,0,0,1.18-2.08,1.51,1.51,0,0,0,0-.6,1.51,1.51,0,0,0,0-.6A2,2,0,0,0,1194.63,799.64Zm72.12-41.39L1252,749.73a6.8,6.8,0,0,0-6.18,0l-17.55,10.13a1.94,1.94,0,0,0-1.18,2.08,1.51,1.51,0,0,0,0,.6,1.51,1.51,0,0,0,0,.6,1.94,1.94,0,0,0,1.18,2.09l14.76,8.52a6.86,6.86,0,0,0,6.18,0l17.55-10.14a2,2,0,0,0,1.18-2.08,1.52,1.52,0,0,0,0-.6,1.51,1.51,0,0,0,0-.6A2,2,0,0,0,1266.75,758.25ZM1138,832.37l-14.76-8.52a6.8,6.8,0,0,0-6.18,0L1099.46,834a2,2,0,0,0-1.18,2.08,1.51,1.51,0,0,0,0,.6,1.51,1.51,0,0,0,0,.6,2,2,0,0,0,1.18,2.08l14.76,8.53a6.86,6.86,0,0,0,6.18,0L1138,837.73a2,2,0,0,0,1.18-2.08,1.52,1.52,0,0,0,0-.6,1.51,1.51,0,0,0,0-.6A2,2,0,0,0,1138,832.37Zm117.47-86.79a1.52,1.52,0,0,0,0,.6,1.51,1.51,0,0,0,0,.6,1.94,1.94,0,0,0,1.18,2.08l14.76,8.53a6.84,6.84,0,0,0,6.17,0l17.56-10.14a2,2,0,0,0,1.18-2.08,1.51,1.51,0,0,0,0-.6,1.52,1.52,0,0,0,0-.6,2,2,0,0,0-1.18-2.08l-14.76-8.53a6.86,6.86,0,0,0-6.18,0L1256.6,743.5A1.94,1.94,0,0,0,1255.42,745.58ZM1024.59,897.82l-14.76-8.53a6.86,6.86,0,0,0-6.18,0L986.1,899.43a2,2,0,0,0-1.18,2.08,1.51,1.51,0,0,0,0,.6,1.51,1.51,0,0,0,0,.6,2,2,0,0,0,1.18,2.08l14.76,8.53a6.86,6.86,0,0,0,6.18,0l17.55-10.14a1.94,1.94,0,0,0,1.18-2.08,1.52,1.52,0,0,0,0-.6,1.52,1.52,0,0,0,0-.6A1.94,1.94,0,0,0,1024.59,897.82Zm56.68-32.73-14.76-8.52a6.8,6.8,0,0,0-6.18,0l-17.55,10.13a2,2,0,0,0-1.18,2.09,1.51,1.51,0,0,0,0,.6,1.51,1.51,0,0,0,0,.6,2,2,0,0,0,1.18,2.08l14.76,8.52a6.8,6.8,0,0,0,6.18,0l17.55-10.13a1.94,1.94,0,0,0,1.18-2.09,1.51,1.51,0,0,0,0-.6,1.51,1.51,0,0,0,0-.6A1.94,1.94,0,0,0,1081.27,865.09Zm-28.34,16.36-14.76-8.52a6.86,6.86,0,0,0-6.18,0l-17.55,10.14a2,2,0,0,0-1.18,2.08,1.51,1.51,0,0,0,0,.6,1.51,1.51,0,0,0,0,.6,2,2,0,0,0,1.18,2.08L1029.2,897a6.8,6.8,0,0,0,6.18,0l17.55-10.13a1.94,1.94,0,0,0,1.18-2.08,1.51,1.51,0,0,0,0-.6,1.51,1.51,0,0,0,0-.6A1.94,1.94,0,0,0,1052.93,881.45Zm-56.68,32.73-14.76-8.52a6.78,6.78,0,0,0-6.17,0l-17.56,10.13a2,2,0,0,0-1.18,2.08,1.51,1.51,0,0,0,0,.6,1.51,1.51,0,0,0,0,.6,2,2,0,0,0,1.18,2.09l14.76,8.52a6.86,6.86,0,0,0,6.18,0l17.55-10.14a1.94,1.94,0,0,0,1.18-2.08,1.51,1.51,0,0,0,0-.6,1.51,1.51,0,0,0,0-.6A1.94,1.94,0,0,0,996.25,914.18Zm-28.34,16.36L953.15,922a6.8,6.8,0,0,0-6.18,0l-17.55,10.13a2,2,0,0,0-1.18,2.09,1.47,1.47,0,0,0,0,.59,1.51,1.51,0,0,0,0,.6,2,2,0,0,0,1.18,2.09L944.18,946a6.86,6.86,0,0,0,6.18,0l17.55-10.13a1.94,1.94,0,0,0,1.18-2.09,1.51,1.51,0,0,0,0-.6,1.51,1.51,0,0,0,0-.6A1.94,1.94,0,0,0,967.91,930.54Zm141.7-81.81-14.76-8.52a6.8,6.8,0,0,0-6.18,0l-17.55,10.13a2,2,0,0,0-1.18,2.08,1.51,1.51,0,0,0,0,.6,1.51,1.51,0,0,0,0,.6,2,2,0,0,0,1.18,2.09l14.76,8.52a6.86,6.86,0,0,0,6.18,0l17.55-10.14a1.94,1.94,0,0,0,1.18-2.08,1.51,1.51,0,0,0,0-.6,1.51,1.51,0,0,0,0-.6A1.94,1.94,0,0,0,1109.61,848.73ZM1166.29,816l-14.76-8.53a6.86,6.86,0,0,0-6.18,0l-17.55,10.14a1.94,1.94,0,0,0-1.18,2.08,1.52,1.52,0,0,0,0,.6,1.51,1.51,0,0,0,0,.6,1.94,1.94,0,0,0,1.18,2.08l14.76,8.53a6.86,6.86,0,0,0,6.18,0l17.55-10.14a1.94,1.94,0,0,0,1.18-2.08,1.51,1.51,0,0,0,0-.6,1.52,1.52,0,0,0,0-.6A1.94,1.94,0,0,0,1166.29,816ZM1012.11,934.33l-14.76-8.53a6.84,6.84,0,0,0-6.17,0l-17.56,10.14a2,2,0,0,0-1.18,2.08,1.51,1.51,0,0,0,0,.6,1.51,1.51,0,0,0,0,.6,2,2,0,0,0,1.18,2.08l14.76,8.52a6.8,6.8,0,0,0,6.18,0l17.55-10.13a1.94,1.94,0,0,0,1.18-2.08,1.52,1.52,0,0,0,0-.6,1.52,1.52,0,0,0,0-.6A1.94,1.94,0,0,0,1012.11,934.33ZM1040.45,918l-14.76-8.52a6.84,6.84,0,0,0-6.17,0L1002,919.58a2,2,0,0,0-1.18,2.08,1.51,1.51,0,0,0,0,.6,1.51,1.51,0,0,0,0,.6,2,2,0,0,0,1.18,2.08l14.76,8.52a6.8,6.8,0,0,0,6.18,0l17.55-10.13a1.94,1.94,0,0,0,1.18-2.08,1.51,1.51,0,0,0,0-.6,1.51,1.51,0,0,0,0-.6A1.94,1.94,0,0,0,1040.45,918Zm-56.68,32.73L969,942.17a6.78,6.78,0,0,0-6.17,0L945.28,952.3a1.94,1.94,0,0,0-1.17,2.08,1.22,1.22,0,0,0,0,.6,1.22,1.22,0,0,0,0,.6,1.94,1.94,0,0,0,1.17,2.08l14.77,8.53a6.84,6.84,0,0,0,6.17,0l17.55-10.14A1.94,1.94,0,0,0,985,954a1.52,1.52,0,0,0,0-.6,1.52,1.52,0,0,0,0-.6A1.94,1.94,0,0,0,983.77,950.69Zm-28.34,16.36-14.76-8.52a6.78,6.78,0,0,0-6.17,0l-17.56,10.13a1.94,1.94,0,0,0-1.17,2.08,1.22,1.22,0,0,0,0,.6,1.22,1.22,0,0,0,0,.6,2,2,0,0,0,1.17,2.09l14.77,8.52a6.84,6.84,0,0,0,6.17,0l17.55-10.14a1.93,1.93,0,0,0,1.18-2.08,1.22,1.22,0,0,0,0-.6,1.22,1.22,0,0,0,0-.6A1.94,1.94,0,0,0,955.43,967.05Zm212.81-182.21-14.77-8.52a6.84,6.84,0,0,0-6.17,0l-26.69,15.41a1.94,1.94,0,0,0-1.18,2.08,1.51,1.51,0,0,0,0,.6,1.51,1.51,0,0,0,0,.6,1.94,1.94,0,0,0,1.18,2.09l14.76,8.52a6.86,6.86,0,0,0,6.18,0l26.69-15.41a1.94,1.94,0,0,0,1.17-2.08,1.22,1.22,0,0,0,0-.6,1.22,1.22,0,0,0,0-.6A2,2,0,0,0,1168.24,784.84Zm51.22,29.77-14.76-8.52a6.86,6.86,0,0,0-6.18,0l-26.69,15.41a2,2,0,0,0-1.18,2.08,1.51,1.51,0,0,0,0,.6,1.51,1.51,0,0,0,0,.6,2,2,0,0,0,1.18,2.08l14.76,8.53a6.86,6.86,0,0,0,6.18,0L1219.46,820a2,2,0,0,0,1.18-2.08,1.51,1.51,0,0,0,0-.6,1.51,1.51,0,0,0,0-.6A2,2,0,0,0,1219.46,814.61Zm73.2-41.4-14.77-8.53a6.84,6.84,0,0,0-6.17,0l-17.55,10.14a1.94,1.94,0,0,0-1.18,2.08,1.22,1.22,0,0,0,0,.6,1.22,1.22,0,0,0,0,.6,1.94,1.94,0,0,0,1.18,2.08l14.76,8.53a6.84,6.84,0,0,0,6.17,0l17.56-10.14a1.94,1.94,0,0,0,1.17-2.08,1.22,1.22,0,0,0,0-.6,1.22,1.22,0,0,0,0-.6A1.94,1.94,0,0,0,1292.66,773.21Zm-28.34,16.36-14.77-8.52a6.78,6.78,0,0,0-6.17,0l-17.56,10.13a1.94,1.94,0,0,0-1.17,2.08,1.22,1.22,0,0,0,0,.6,1.22,1.22,0,0,0,0,.6,2,2,0,0,0,1.17,2.09l14.77,8.52a6.84,6.84,0,0,0,6.17,0l17.56-10.14a1.94,1.94,0,0,0,1.17-2.08,1.22,1.22,0,0,0,0-.6,1.22,1.22,0,0,0,0-.6A1.94,1.94,0,0,0,1264.32,789.57Zm-81.7,46.61-14.76-8.53a6.86,6.86,0,0,0-6.18,0l-131.25,75.78a2,2,0,0,0-1.18,2.09,1.47,1.47,0,0,0,0,.59,1.51,1.51,0,0,0,0,.6,2,2,0,0,0,1.18,2.09l14.76,8.52a6.8,6.8,0,0,0,6.18,0l131.25-75.78a2,2,0,0,0,1.18-2.08,1.52,1.52,0,0,0,0-.6,1.52,1.52,0,0,0,0-.6A2,2,0,0,0,1182.62,836.18Zm-108.54,3-14.76-8.53a6.86,6.86,0,0,0-6.18,0l-17.55,10.14a2,2,0,0,0-1.18,2.08,1.52,1.52,0,0,0,0,.6,1.52,1.52,0,0,0,0,.6,2,2,0,0,0,1.18,2.08l14.76,8.52a6.8,6.8,0,0,0,6.18,0l17.55-10.13a2,2,0,0,0,1.18-2.08,1.52,1.52,0,0,0,0-.6,1.52,1.52,0,0,0,0-.6A2,2,0,0,0,1074.08,839.21Zm-28.34,16.36L1031,847.05a6.8,6.8,0,0,0-6.18,0l-17.55,10.13a2,2,0,0,0-1.18,2.08,1.51,1.51,0,0,0,0,.6,1.52,1.52,0,0,0,0,.6,2,2,0,0,0,1.18,2.08l14.76,8.53a6.86,6.86,0,0,0,6.18,0l17.55-10.14a1.94,1.94,0,0,0,1.18-2.08,1.52,1.52,0,0,0,0-.6,1.52,1.52,0,0,0,0-.6A1.94,1.94,0,0,0,1045.74,855.57Zm56.68-32.73-14.76-8.52a6.86,6.86,0,0,0-6.18,0l-17.55,10.14a1.94,1.94,0,0,0-1.18,2.08,1.51,1.51,0,0,0,0,.6,1.51,1.51,0,0,0,0,.6,2,2,0,0,0,1.18,2.08l14.76,8.52a6.8,6.8,0,0,0,6.18,0l17.55-10.13a2,2,0,0,0,1.18-2.08,1.51,1.51,0,0,0,0-.6,1.51,1.51,0,0,0,0-.6A2,2,0,0,0,1102.42,822.84Zm101.27-107.13a1.51,1.51,0,0,0,0,.6,1.51,1.51,0,0,0,0,.6,1.94,1.94,0,0,0,1.18,2.09l14.76,8.52a6.84,6.84,0,0,0,6.17,0l17.56-10.13a2,2,0,0,0,1.18-2.09,1.52,1.52,0,0,0,0-.6,1.51,1.51,0,0,0,0-.6,2,2,0,0,0-1.18-2.08l-14.76-8.52a6.8,6.8,0,0,0-6.18,0l-17.55,10.13A1.94,1.94,0,0,0,1203.69,715.71Zm-72.93,90.77L1116,798a6.8,6.8,0,0,0-6.18,0l-17.55,10.13a1.94,1.94,0,0,0-1.18,2.09,1.51,1.51,0,0,0,0,.6,1.51,1.51,0,0,0,0,.6,1.94,1.94,0,0,0,1.18,2.08L1107,822a6.8,6.8,0,0,0,6.18,0l17.55-10.13a2,2,0,0,0,1.18-2.09,1.51,1.51,0,0,0,0-.6,1.51,1.51,0,0,0,0-.6A2,2,0,0,0,1130.76,806.48ZM1017.4,871.93l-14.76-8.52a6.8,6.8,0,0,0-6.18,0l-17.55,10.13a2,2,0,0,0-1.18,2.08,1.51,1.51,0,0,0,0,.6,1.51,1.51,0,0,0,0,.6,2,2,0,0,0,1.18,2.09l14.76,8.52a6.86,6.86,0,0,0,6.18,0l17.55-10.14a2,2,0,0,0,1.18-2.08,1.51,1.51,0,0,0,0-.6,1.51,1.51,0,0,0,0-.6A2,2,0,0,0,1017.4,871.93Zm-56.68,32.72L946,896.13a6.86,6.86,0,0,0-6.18,0l-17.55,10.14a2,2,0,0,0-1.18,2.08,1.51,1.51,0,0,0,0,.6,1.52,1.52,0,0,0,0,.6,2,2,0,0,0,1.18,2.08L937,920.15a6.8,6.8,0,0,0,6.18,0L960.72,910a1.94,1.94,0,0,0,1.18-2.08,1.51,1.51,0,0,0,0-.6,1.51,1.51,0,0,0,0-.6A1.94,1.94,0,0,0,960.72,904.65Zm28.34-16.36-14.76-8.52a6.8,6.8,0,0,0-6.18,0L950.57,889.9a2,2,0,0,0-1.18,2.09,1.51,1.51,0,0,0,0,.6,1.51,1.51,0,0,0,0,.6,2,2,0,0,0,1.18,2.08l14.76,8.52a6.8,6.8,0,0,0,6.18,0l17.55-10.13a1.94,1.94,0,0,0,1.18-2.09,1.51,1.51,0,0,0,0-.6,1.47,1.47,0,0,0,0-.59A1.94,1.94,0,0,0,989.06,888.29Z"/><path class="cls-16" d="M852.54,910.43,835,920.57a6.84,6.84,0,0,1-6.17,0L814.05,912c-1.7-1-1.7-2.58,0-3.56l17.56-10.14a6.84,6.84,0,0,1,6.17,0l14.76,8.53C854.25,907.85,854.25,909.45,852.54,910.43Zm28.34-19.93L866.12,882a6.84,6.84,0,0,0-6.17,0l-17.56,10.14c-1.7,1-1.7,2.58,0,3.56l14.76,8.52a6.8,6.8,0,0,0,6.18,0l17.55-10.13C882.59,893.09,882.59,891.49,880.88,890.5Zm28.34-16.36-14.76-8.52a6.84,6.84,0,0,0-6.17,0l-17.56,10.13c-1.7,1-1.7,2.58,0,3.57l14.76,8.52a6.8,6.8,0,0,0,6.18,0l17.55-10.13C910.93,876.72,910.93,875.13,909.22,874.14Zm28.34-16.36-14.76-8.52a6.78,6.78,0,0,0-6.17,0l-17.56,10.13c-1.7,1-1.7,2.58,0,3.57l14.76,8.52a6.8,6.8,0,0,0,6.18,0l17.55-10.13C939.27,860.36,939.27,858.76,937.56,857.78Zm28.34-16.36-14.76-8.53a6.84,6.84,0,0,0-6.17,0L927.41,843c-1.7,1-1.7,2.58,0,3.56l14.76,8.53a6.86,6.86,0,0,0,6.18,0L965.9,845C967.61,844,967.61,842.4,965.9,841.42Zm28.34-16.36-14.76-8.53a6.84,6.84,0,0,0-6.17,0l-17.56,10.14c-1.7,1-1.7,2.58,0,3.56l14.76,8.53a6.86,6.86,0,0,0,6.18,0l17.55-10.14C996,827.64,996,826,994.24,825.06Zm28.34-16.37-14.76-8.52a6.86,6.86,0,0,0-6.18,0l-17.55,10.14c-1.7,1-1.7,2.58,0,3.56l14.76,8.52a6.8,6.8,0,0,0,6.18,0l17.55-10.13C1024.29,811.27,1024.29,809.68,1022.58,808.69Zm28.34-16.36-14.76-8.52a6.78,6.78,0,0,0-6.17,0l-17.56,10.13c-1.7,1-1.7,2.58,0,3.57l14.76,8.52a6.8,6.8,0,0,0,6.18,0l17.55-10.13C1052.63,794.91,1052.63,793.32,1050.92,792.33ZM1079.26,776l-14.76-8.52a6.8,6.8,0,0,0-6.18,0l-17.55,10.13c-1.7,1-1.7,2.58,0,3.57l14.76,8.52a6.86,6.86,0,0,0,6.18,0l17.55-10.13C1081,778.55,1081,777,1079.26,776Zm37.48-21.64L1102,745.81a6.8,6.8,0,0,0-6.18,0l-26.69,15.41c-1.7,1-1.7,2.58,0,3.56l14.76,8.53a6.86,6.86,0,0,0,6.18,0l26.69-15.41C1118.44,756.91,1118.44,755.32,1116.74,754.33Zm121.67,19.5-14.76-8.52a6.8,6.8,0,0,0-6.18,0l-17.55,10.13c-1.71,1-1.71,2.58,0,3.57l14.76,8.52a6.8,6.8,0,0,0,6.18,0l17.55-10.13C1240.11,776.41,1240.11,774.82,1238.41,773.83Zm28.34-16.36L1252,749a6.8,6.8,0,0,0-6.18,0l-17.55,10.13c-1.71,1-1.71,2.58,0,3.57l14.76,8.52a6.8,6.8,0,0,0,6.18,0L1266.75,761C1268.45,760.05,1268.45,758.46,1266.75,757.47Zm28.34-16.36-14.76-8.52a6.8,6.8,0,0,0-6.18,0l-17.55,10.13c-1.71,1-1.71,2.58,0,3.57l14.76,8.52a6.84,6.84,0,0,0,6.17,0l17.56-10.14C1296.79,743.69,1296.79,742.09,1295.09,741.11Zm-30.77,47.68-14.77-8.52a6.78,6.78,0,0,0-6.17,0l-17.56,10.13c-1.7,1-1.7,2.58,0,3.57l14.77,8.52a6.78,6.78,0,0,0,6.17,0l17.56-10.13C1266,791.37,1266,789.77,1264.32,788.79Zm28.34-16.36-14.77-8.52a6.78,6.78,0,0,0-6.17,0L1254.17,774c-1.71,1-1.71,2.58,0,3.57l14.76,8.52a6.84,6.84,0,0,0,6.17,0L1292.66,776C1294.36,775,1294.36,773.41,1292.66,772.43ZM1321,756.07l-14.77-8.53a6.84,6.84,0,0,0-6.17,0l-17.56,10.14c-1.7,1-1.7,2.58,0,3.56l14.77,8.53a6.84,6.84,0,0,0,6.17,0L1321,759.63C1322.7,758.65,1322.7,757.05,1321,756.07ZM888.08,916.39l-14.77-8.52a6.78,6.78,0,0,0-6.17,0l-26.69,15.41c-1.71,1-1.71,2.58,0,3.56l14.76,8.53a6.86,6.86,0,0,0,6.18,0L888.08,920C889.78,919,889.78,917.38,888.08,916.39ZM916.41,900l-14.76-8.52a6.78,6.78,0,0,0-6.17,0l-17.56,10.13c-1.7,1-1.7,2.58,0,3.57l14.77,8.52a6.84,6.84,0,0,0,6.17,0l17.55-10.14C918.12,902.61,918.12,901,916.41,900Zm28.34-16.36L930,875.14a6.84,6.84,0,0,0-6.17,0l-17.56,10.14c-1.7,1-1.7,2.58,0,3.56L921,897.37a6.86,6.86,0,0,0,6.18,0l17.55-10.14C946.46,886.25,946.46,884.65,944.75,883.67Zm28.34-16.37-14.76-8.52a6.84,6.84,0,0,0-6.17,0L934.6,868.92c-1.7,1-1.7,2.58,0,3.56L949.37,881a6.78,6.78,0,0,0,6.17,0l17.55-10.13C974.8,869.88,974.8,868.29,973.09,867.3Zm28.34-16.36-14.76-8.52a6.78,6.78,0,0,0-6.17,0l-17.56,10.13c-1.7,1-1.7,2.58,0,3.57l14.76,8.52a6.8,6.8,0,0,0,6.18,0l17.55-10.13C1003.14,853.52,1003.14,851.93,1001.43,850.94Zm28.34-16.36L1015,826.06a6.78,6.78,0,0,0-6.17,0l-17.56,10.13c-1.7,1-1.7,2.58,0,3.57l14.76,8.52a6.8,6.8,0,0,0,6.18,0l17.55-10.13C1031.48,837.16,1031.48,835.56,1029.77,834.58Zm28.34-16.36-14.76-8.53a6.84,6.84,0,0,0-6.17,0l-17.56,10.14c-1.7,1-1.7,2.58,0,3.57l14.76,8.52a6.86,6.86,0,0,0,6.18,0l17.55-10.14C1059.82,820.8,1059.82,819.2,1058.11,818.22Zm28.34-16.36-14.76-8.53a6.84,6.84,0,0,0-6.17,0L1048,803.47c-1.7,1-1.7,2.58,0,3.56l14.76,8.53a6.86,6.86,0,0,0,6.18,0l17.55-10.14C1088.16,804.44,1088.16,802.84,1086.45,801.86Zm28.34-16.37L1100,777a6.84,6.84,0,0,0-6.17,0l-17.56,10.14c-1.7,1-1.7,2.58,0,3.56l14.76,8.52a6.8,6.8,0,0,0,6.18,0l17.55-10.13C1116.5,788.07,1116.5,786.48,1114.79,785.49Zm28.34-16.36-14.76-8.52a6.8,6.8,0,0,0-6.18,0l-17.55,10.13c-1.7,1-1.7,2.58,0,3.57l14.76,8.52a6.8,6.8,0,0,0,6.18,0l17.55-10.13C1144.84,771.71,1144.84,770.12,1143.13,769.13ZM904,936.6l-14.76-8.52a6.8,6.8,0,0,0-6.18,0l-17.55,10.13c-1.7,1-1.7,2.58,0,3.57l14.76,8.52a6.86,6.86,0,0,0,6.18,0L904,940.16C905.75,939.18,905.75,937.58,904,936.6Zm28.34-16.36-14.76-8.53a6.86,6.86,0,0,0-6.18,0l-17.55,10.14c-1.7,1-1.7,2.58,0,3.56l14.76,8.53a6.86,6.86,0,0,0,6.18,0l17.55-10.14C934.09,922.82,934.09,921.22,932.38,920.24Zm28.34-16.36L946,895.35a6.86,6.86,0,0,0-6.18,0l-17.55,10.14c-1.7,1-1.7,2.58,0,3.56L937,917.57a6.8,6.8,0,0,0,6.18,0l17.55-10.13C962.43,906.46,962.43,904.86,960.72,903.88Zm28.34-16.37L974.3,879a6.86,6.86,0,0,0-6.18,0l-17.55,10.13c-1.7,1-1.7,2.59,0,3.57l14.76,8.52a6.8,6.8,0,0,0,6.18,0l17.55-10.13C990.77,890.09,990.77,888.5,989.06,887.51Zm-33.63,78.76-14.76-8.52a6.78,6.78,0,0,0-6.17,0l-17.56,10.13c-1.7,1-1.7,2.58,0,3.57L931.71,980a6.78,6.78,0,0,0,6.17,0l17.55-10.13C957.14,968.85,957.14,967.26,955.43,966.27Zm28.34-16.36L969,941.39a6.78,6.78,0,0,0-6.17,0l-17.56,10.13c-1.7,1-1.7,2.58,0,3.57l14.77,8.52a6.84,6.84,0,0,0,6.17,0l17.55-10.14C985.48,952.49,985.48,950.89,983.77,949.91Zm28.34-16.36L997.35,925a6.84,6.84,0,0,0-6.17,0l-17.56,10.14c-1.7,1-1.7,2.58,0,3.56l14.76,8.53a6.86,6.86,0,0,0,6.18,0l17.55-10.14C1013.82,936.13,1013.82,934.53,1012.11,933.55Zm28.34-16.36-14.76-8.53a6.84,6.84,0,0,0-6.17,0L1002,918.8c-1.7,1-1.7,2.58,0,3.56l14.76,8.52a6.8,6.8,0,0,0,6.18,0l17.55-10.13C1042.16,919.77,1042.16,918.17,1040.45,917.19Zm179-103.36-14.76-8.52a6.86,6.86,0,0,0-6.18,0l-26.69,15.41c-1.7,1-1.7,2.58,0,3.57l14.76,8.52a6.86,6.86,0,0,0,6.18,0l26.69-15.41C1221.16,816.42,1221.16,814.82,1219.46,813.83ZM1017.4,871.15l-14.76-8.52a6.8,6.8,0,0,0-6.18,0l-17.55,10.13c-1.71,1-1.71,2.58,0,3.57l14.76,8.52a6.8,6.8,0,0,0,6.18,0l17.55-10.13C1019.11,873.73,1019.11,872.13,1017.4,871.15Zm28.34-16.36L1031,846.27a6.8,6.8,0,0,0-6.18,0l-17.55,10.13c-1.71,1-1.71,2.58,0,3.57l14.76,8.52a6.86,6.86,0,0,0,6.18,0l17.55-10.14C1047.45,857.37,1047.45,855.77,1045.74,854.79Zm28.34-16.36-14.76-8.53a6.86,6.86,0,0,0-6.18,0L1035.59,840c-1.71,1-1.71,2.58,0,3.56l14.76,8.53a6.86,6.86,0,0,0,6.18,0L1074.08,842C1075.79,841,1075.79,839.41,1074.08,838.43Zm28.34-16.37-14.76-8.52a6.86,6.86,0,0,0-6.18,0l-17.55,10.14c-1.71,1-1.71,2.58,0,3.56l14.76,8.52a6.8,6.8,0,0,0,6.18,0l17.55-10.13C1104.13,824.64,1104.13,823.05,1102.42,822.06Zm28.34-16.36L1116,797.18a6.8,6.8,0,0,0-6.18,0l-17.55,10.13c-1.71,1-1.71,2.58,0,3.57L1107,819.4a6.8,6.8,0,0,0,6.18,0l17.55-10.13C1132.47,808.28,1132.47,806.69,1130.76,805.7Zm37.48-21.64-14.77-8.52a6.84,6.84,0,0,0-6.17,0L1120.61,791c-1.71,1-1.71,2.58,0,3.57l14.76,8.52a6.8,6.8,0,0,0,6.18,0l26.69-15.41C1169.94,786.65,1169.94,785.05,1168.24,784.06ZM939.57,946.12l-14.76-8.52a6.84,6.84,0,0,0-6.17,0L892,953c-1.71,1-1.71,2.58,0,3.57l14.76,8.52a6.84,6.84,0,0,0,6.17,0l26.69-15.41C941.28,948.7,941.28,947.11,939.57,946.12Zm28.34-16.36-14.76-8.52a6.8,6.8,0,0,0-6.18,0l-17.55,10.13c-1.7,1-1.7,2.58,0,3.57l14.76,8.52a6.8,6.8,0,0,0,6.18,0l17.55-10.13C969.62,932.34,969.62,930.75,967.91,929.76Zm28.34-16.36-14.76-8.52a6.78,6.78,0,0,0-6.17,0L957.76,915c-1.7,1-1.7,2.58,0,3.57l14.76,8.52a6.86,6.86,0,0,0,6.18,0L996.25,917C998,916,998,914.38,996.25,913.4ZM1024.59,897l-14.76-8.53a6.86,6.86,0,0,0-6.18,0L986.1,898.65c-1.7,1-1.7,2.58,0,3.56l14.76,8.53a6.86,6.86,0,0,0,6.18,0l17.55-10.14C1026.3,899.62,1026.3,898,1024.59,897Zm28.34-16.37-14.76-8.52a6.86,6.86,0,0,0-6.18,0l-17.55,10.14c-1.71,1-1.71,2.58,0,3.56l14.76,8.52a6.8,6.8,0,0,0,6.18,0l17.55-10.13C1054.64,883.26,1054.64,881.66,1052.93,880.67Zm129.69-45.27-14.76-8.53a6.86,6.86,0,0,0-6.18,0l-131.25,75.78c-1.71,1-1.71,2.59,0,3.57l14.76,8.52a6.8,6.8,0,0,0,6.18,0L1182.62,839C1184.32,838,1184.32,836.38,1182.62,835.4Zm-101.35,28.91-14.76-8.52a6.86,6.86,0,0,0-6.18,0l-17.55,10.13c-1.71,1-1.71,2.59,0,3.57l14.76,8.52a6.8,6.8,0,0,0,6.18,0l17.55-10.13C1083,866.89,1083,865.3,1081.27,864.31ZM1109.61,848l-14.76-8.52a6.8,6.8,0,0,0-6.18,0l-17.55,10.13c-1.71,1-1.71,2.58,0,3.57l14.76,8.52a6.8,6.8,0,0,0,6.18,0l17.55-10.13C1111.32,850.53,1111.32,848.94,1109.61,848ZM1138,831.59l-14.76-8.52a6.8,6.8,0,0,0-6.18,0l-17.55,10.13c-1.71,1-1.71,2.58,0,3.57l14.76,8.52a6.86,6.86,0,0,0,6.18,0L1138,835.15C1139.66,834.17,1139.66,832.57,1138,831.59Zm28.34-16.36-14.76-8.53a6.86,6.86,0,0,0-6.18,0l-17.55,10.14c-1.71,1-1.71,2.58,0,3.56l14.76,8.53a6.86,6.86,0,0,0,6.18,0l17.55-10.14C1168,817.81,1168,816.21,1166.29,815.23Zm28.34-16.37-14.76-8.52a6.86,6.86,0,0,0-6.18,0l-17.55,10.14c-1.71,1-1.71,2.58,0,3.56l14.76,8.52a6.8,6.8,0,0,0,6.18,0l17.55-10.13C1196.34,801.44,1196.34,799.85,1194.63,798.86ZM1160.83,729l-14.76-8.52a6.84,6.84,0,0,0-6.17,0l-17.56,10.14c-1.7,1-1.7,2.58,0,3.56l14.77,8.52a6.78,6.78,0,0,0,6.17,0l17.55-10.13C1162.54,731.62,1162.54,730,1160.83,729Zm28.34-16.36-14.76-8.52a6.78,6.78,0,0,0-6.17,0l-17.56,10.13c-1.7,1-1.7,2.58,0,3.57l14.76,8.52a6.8,6.8,0,0,0,6.18,0l17.55-10.13C1190.88,715.26,1190.88,713.67,1189.17,712.68Zm28.34-16.36-14.76-8.52a6.78,6.78,0,0,0-6.17,0L1179,697.93c-1.7,1-1.7,2.58,0,3.57l14.76,8.52a6.86,6.86,0,0,0,6.18,0l17.55-10.13C1219.22,698.9,1219.22,697.3,1217.51,696.32Zm25.85,14.92-14.76-8.52a6.8,6.8,0,0,0-6.18,0l-17.55,10.13c-1.71,1-1.71,2.58,0,3.57l14.76,8.52a6.78,6.78,0,0,0,6.17,0l17.56-10.13C1245.06,713.82,1245.06,712.23,1243.36,711.24Zm25.1,13.77L1254,716.68a5.69,5.69,0,0,0-5.1,0l-24.79,14.11a4.78,4.78,0,0,1-4.31,0l-19.44-11.22a8.49,8.49,0,0,0-7.67,0l-44.48,25.68c-2.12,1.22-2.12,3.21,0,4.43L1187,772a8.43,8.43,0,0,0,7.67,0l73.78-42.59C1270.58,728.22,1270.58,726.24,1268.46,725Z"/><path class="cls-16" d="M1476.87,655.25c-6.06-15.49-28.95-45.33-63.51-58.48-27.68-10.53-62.63-21.33-104.09,2.68a48.6,48.6,0,0,0-4.5,2.94c-15,11-14.54,29.52,1.48,40.76,29.43,20.63,65.18,40,65.18,40a123.52,123.52,0,0,0,28,11.14c23.8,6.07,44.93,3.9,62.84-6.51,11.3-6.57,16.92-15.18,16.88-23.79A27.94,27.94,0,0,0,1476.87,655.25Z"/><path class="cls-14" d="M1360.56,603.64l-11.68-6.37a11.8,11.8,0,0,0-13.17,2.05c-2.87,2.46-1.58,3.51,1.82,5.16l11.75,5.51c3.4,1.65,9.1,2.14,12.23,0S1364,605.29,1360.56,603.64Z"/><g class="cls-17"><g class="cls-2"><path class="cls-16" d="M1353,594.17c-3.94-2.21-7.81-2.34-11.5-.37l16.88,26.85C1366.59,614.4,1362.51,599.94,1353,594.17Z"/><path class="cls-14" d="M1358.11,607.39c-2.08-5.36-5.86-9.88-9.76-12.13a9.83,9.83,0,0,0-5.64-1.52,5.6,5.6,0,0,0-2.39.74,10.63,10.63,0,0,0-4.9,6.52c-2.86,10.18,8.91,27.36,20.9,21C1359.82,620,1360.7,614.07,1358.11,607.39Z"/><path class="cls-18" d="M1349.76,610.42a15.33,15.33,0,0,0-6.1-7.58,6.08,6.08,0,0,0-3.52-.94c-3.38.29-4.55,4.58-2.61,9.57a15.32,15.32,0,0,0,6.1,7.59,6.12,6.12,0,0,0,3.51.94C1350.53,619.71,1351.7,615.42,1349.76,610.42Z"/></g></g><path class="cls-14" d="M1464.38,680.09c-17.91,10.41-39,12.58-62.84,6.51a123.7,123.7,0,0,1-28-11.14s-35.75-19.36-65.17-40c-8.9-6.24-13-14.72-12.29-22.91-4.93,10.23-1.58,22.35,10.15,30.59,29.43,20.63,65.18,40,65.18,40a123.52,123.52,0,0,0,28,11.14c23.8,6.07,44.93,3.9,62.84-6.51,10.54-6.13,16.08-14,16.74-22.07C1476.38,671,1471.52,675.94,1464.38,680.09Z"/><path class="cls-14" d="M1463.31,683.76c-17.91,10.41-39,12.58-62.84,6.51a124.09,124.09,0,0,1-28-11.14s-35.76-19.36-65.18-40c-9.51-6.67-13.51-15.9-12.06-24.6-3.63,9.78,0,20.9,11,28.61,29.43,20.63,65.18,40,65.18,40a123.52,123.52,0,0,0,28,11.14c23.8,6.07,44.93,3.9,62.84-6.51,9.78-5.68,15.19-12.9,16.47-20.32C1476.42,673.43,1471.32,679.11,1463.31,683.76Z"/><path class="cls-19" d="M1115.1,375.34,1006.17,438s6.78,95.47,53.11,109.21l100.9-61.72S1121.46,457.39,1115.1,375.34Z"/><polygon class="cls-20" points="1426.88 415.99 1426.88 443.37 1331.8 498.22 1224.93 436.51 1224.93 409.09 1426.88 415.99"/><polygon class="cls-21" points="1426.88 415.99 1319.93 353.77 1224.93 409.09 1331.8 470.8 1426.88 415.99"/><path class="cls-19" d="M1319.93,353.77l-95,55.32s57,38.51,122.1,47.16l96.3-62.45S1363.14,381.57,1319.93,353.77Z"/><path class="cls-22" d="M1678.71,527.42c31.42,18.14,31.58,47.55.37,65.69s-82,18.14-113.39,0-31.57-47.54-.36-65.68S1647.31,509.29,1678.71,527.42Z"/><path class="cls-23" d="M1629.69,431.41c.52.3.53.79,0,1.09a2.1,2.1,0,0,1-1.89,0c-.52-.3-.53-.79,0-1.09A2.1,2.1,0,0,1,1629.69,431.41Z"/><g class="cls-2"><path class="cls-20" d="M1685.91,440.08a17.76,17.76,0,0,0-7,2.8c-1.36,1-2.25,2.5-3.77,3.37,3.72-2,7.84-3.72,12.12-3.94,4-.2,6.11.94,7.88,4.55,3.82,7.83,3.32,17.54,1.85,25.9-2.27,12.94-7.87,25.35-15.21,36.18a75.67,75.67,0,0,1-22.14,21.77c.67-.33,6.33,3.71,6.73,3.94q5.16,3,10.35,6c.35.2.91.7,1.3.74,2.31.23,7-4.55,8.65-6.08a86.33,86.33,0,0,0,15.82-19.58c9-14.9,15.77-33.31,13.85-51-.86-7.89-3.82-16.05-10.23-21.1C1700.34,439.12,1692.83,438.19,1685.91,440.08Z"/></g><path class="cls-21" d="M1677.93,437.45c22.22-12.84,43.78-.55,43.86,29.78s-21.32,67.42-43.55,80.25c0-.4,0-5.57,0-6,19.38-11.19,38.45-44.23,38.38-71.28s-19.28-38-38.66-26.81C1677.94,443,1677.93,437.85,1677.93,437.45Z"/><path class="cls-20" d="M1722.4,458.29c-1.4-9.41-4.58-18.33-11.45-25.18a46.23,46.23,0,0,0-16.48-10.36,40.32,40.32,0,0,0-7.26-1.87c-1.16-.18-2.35-.33-3.53-.4-.38,0-2.48-.07-1.32-.07-8.3-.16-15.77,2.38-23,6.24.37-.22,4.55,2.67,4.83,2.83q5.52,3.22,11.08,6.42a12.18,12.18,0,0,0,1.64.94c1.7.63,2.32-.15,4.05-1a34.69,34.69,0,0,1,12.53-3.37c19.48-1.17,28.3,18,28.35,34.72.06,15.82-5.26,31.57-12.69,45.37a109.26,109.26,0,0,1-15.43,22,77,77,0,0,1-8.87,8.35c-1.48,1.16-3,2.27-4.58,3.28-1.84,1.18-3,3-4.82,4,23.74-14.12,40-41.35,45.6-67.95C1722.64,474.6,1723.58,466.18,1722.4,458.29Z"/><path class="cls-24" d="M1679.57,428.73,1679.19,562c0,11.81-7.79,23.6-23.3,32.61-31.21,18.14-82,18.14-113.39,0-15.8-9.13-23.69-21.1-23.66-33.06l.38-133.26c0,12,7.86,23.94,23.66,33.06,31.41,18.14,82.18,18.14,113.39,0C1671.78,452.33,1679.54,440.54,1679.57,428.73Z"/><path class="cls-21" d="M1655.9,395.66c31.42,18.13,31.58,47.54.37,65.68s-82,18.14-113.39,0-31.57-47.54-.36-65.68S1624.5,377.53,1655.9,395.66Z"/><path class="cls-25" d="M1656.27,461.34a64.81,64.81,0,0,0,10-7.06c3.8-12.28-2.53-25.43-19-34.92-26.61-15.36-69.62-15.36-96.06,0-16.24,9.43-22.43,22.47-18.65,34.68a65.07,65.07,0,0,0,10.32,7.29C1574.29,479.48,1625.06,479.48,1656.27,461.34Z"/><path class="cls-20" d="M1656.58,460.71a96.59,96.59,0,0,1-25.15,9.85V603.71A95.58,95.58,0,0,0,1656.2,594c15.51-9,23.27-20.8,23.31-32.61l.37-133.25C1679.85,439.9,1672.09,451.7,1656.58,460.71Z"/><path class="cls-19" d="M1599.45,391.73h0c19.74,0,38.18,4.37,51.92,12.3,12.13,7,18.82,15.74,18.83,24.59S1663.65,446,1651.71,453c-13.64,7.92-32,12.29-51.76,12.29S1561.76,460.9,1548,453c-12.12-7-18.81-15.73-18.82-24.58s6.56-17.42,18.49-24.35c13.65-7.93,32-12.3,51.77-12.3m0-9.67c-20.52,0-41,4.53-56.63,13.6-31.21,18.14-31,47.55.36,65.68,15.71,9.07,36.25,13.6,56.77,13.6s41-4.53,56.62-13.6c31.21-18.14,31-47.55-.37-65.68-15.69-9.07-36.23-13.6-56.75-13.6Z"/><path class="cls-1" d="M349.1,1071.4c-.07-.08-.13-.17-.19-.25C349,1071.23,349,1071.32,349.1,1071.4Z"/><path class="cls-1" d="M348.59,1070.65a2.69,2.69,0,0,0,.16.29A2.69,2.69,0,0,1,348.59,1070.65Z"/><path class="cls-1" d="M348,1068.67c0,.16,0,.33.07.49C348,1069,348,1068.83,348,1068.67Z"/><path class="cls-1" d="M349.28,1071.57a2.18,2.18,0,0,0,.22.21A2.18,2.18,0,0,1,349.28,1071.57Z"/><path class="cls-1" d="M348.33,1070.08a3.24,3.24,0,0,0,.13.33A3.24,3.24,0,0,1,348.33,1070.08Z"/><path class="cls-1" d="M347.91,1067.63a6.91,6.91,0,0,0,0,.8A6.91,6.91,0,0,1,347.91,1067.63Z"/><path class="cls-1" d="M348.12,1069.42c0,.14.06.27.1.4C348.18,1069.69,348.16,1069.56,348.12,1069.42Z"/><path class="cls-26" d="M349.28,1071.57l-.18-.17c-.07-.08-.13-.17-.19-.25s-.11-.13-.16-.21a2.69,2.69,0,0,1-.16-.29c0-.08-.09-.15-.13-.24a3.24,3.24,0,0,1-.13-.33c0-.09-.08-.17-.11-.26s-.06-.26-.1-.4-.05-.17-.07-.26-.05-.33-.07-.49a2,2,0,0,1,0-.24,6.91,6.91,0,0,1,0-.8l-40.09-23.29c0,2.19.78,3.73,2,4.45l40.08,23.29c-.08,0-.15-.1-.23-.15s-.14-.09-.2-.15A2.18,2.18,0,0,1,349.28,1071.57Z"/><path class="cls-12" d="M584.63,912.66l-236.77,136.7.05,18.27a6.91,6.91,0,0,0,0,.8,2,2,0,0,0,0,.24c0,.16,0,.33.07.49s.05.17.07.26.06.27.1.4.07.17.11.26a3.24,3.24,0,0,0,.13.33c0,.09.09.16.13.24a2.69,2.69,0,0,0,.16.29c.05.08.11.14.16.21s.12.17.19.25l.18.17a2.18,2.18,0,0,0,.22.21c.06.06.14.1.2.15,1.28.89,3.12.85,5.17-.33l222.9-128.69a15.24,15.24,0,0,0,6.91-12Z"/><path class="cls-27" d="M348.05,1069.16c0,.09.05.17.07.26C348.1,1069.33,348.07,1069.25,348.05,1069.16Z"/><path class="cls-27" d="M348,1068.43a2,2,0,0,0,0,.24A2,2,0,0,1,348,1068.43Z"/><path class="cls-27" d="M349.28,1071.57l-.18-.17Z"/><path class="cls-27" d="M349.7,1071.93c-.06,0-.14-.09-.2-.15S349.64,1071.88,349.7,1071.93Z"/><path class="cls-27" d="M348.75,1070.94c.05.08.11.14.16.21S348.8,1071,348.75,1070.94Z"/><path class="cls-27" d="M348.22,1069.82c0,.09.07.17.11.26C348.29,1070,348.25,1069.91,348.22,1069.82Z"/><path class="cls-27" d="M348.46,1070.41c0,.09.09.16.13.24C348.55,1070.57,348.5,1070.5,348.46,1070.41Z"/><polygon class="cls-11" points="347.86 1049.36 307.77 1026.06 307.82 1044.34 347.91 1067.63 347.86 1049.36"/><polygon class="cls-28" points="584.63 912.66 544.55 889.36 307.77 1026.06 347.86 1049.36 584.63 912.66"/><path class="cls-1" d="M563.56,810.45l.51-.19-.38.14Z"/><path class="cls-1" d="M562.35,811l.47-.2-.44.18Z"/><path class="cls-1" d="M563.69,810.4l.38-.14.65-.24C564.38,810.13,564,810.26,563.69,810.4Z"/><path class="cls-1" d="M564.85,810l.43-.13.51-.16Z"/><path class="cls-1" d="M564.75,810l.53-.16-.43.13Z"/><path class="cls-1" d="M565.93,809.64l.52-.13-.45.11Z"/><path class="cls-1" d="M561.12,811.57l.22-.11-.07,0Z"/><path class="cls-1" d="M571.62,809h-.1l.39,0,.47,0Z"/><path class="cls-1" d="M572.44,809.05l.47.07-.3,0Z"/><path class="cls-1" d="M571.42,809l.49,0-.39,0Z"/><path class="cls-1" d="M570.57,809h0Z"/><path class="cls-1" d="M573.08,809.14l-.47-.07.3,0,.36.06Z"/><path class="cls-1" d="M573.57,809.24l.31.08.33.08Z"/><path class="cls-1" d="M573.42,809.21l.46.11-.31-.08Z"/><path class="cls-1" d="M570.38,809h0Z"/><path class="cls-1" d="M567.08,809.35l.53-.1-.48.09Z"/><path class="cls-1" d="M567.13,809.34l.48-.09.3,0C567.65,809.24,567.39,809.28,567.13,809.34Z"/><path class="cls-1" d="M570,809l-.46,0h.25l.41,0Z"/><path class="cls-1" d="M568.22,809.14h0Z"/><path class="cls-1" d="M566.1,809.59l-.1,0,.45-.11.24-.06Z"/><path class="cls-1" d="M569.3,809l.51,0h-.25Z"/><path class="cls-1" d="M568.27,809.13l.45,0,.49-.06C568.9,809.05,568.58,809.08,568.27,809.13Z"/><path class="cls-1" d="M568.22,809.14h0l.51-.06-.45,0Z"/><path class="cls-1" d="M574.37,809.44l.44.14-.39-.13Z"/><path class="cls-1" d="M563.25,810.57l-.87.38.44-.18.63-.28Z"/><path class="cls-1" d="M353.19,941.16c.08-.15.15-.3.23-.44l-.08.14Z"/><path class="cls-1" d="M352.22,943.1c.07-.16.15-.32.23-.49l-.15.3C352.27,943,352.25,943,352.22,943.1Z"/><path class="cls-1" d="M577,810.55l0,0-.08,0Z"/><path class="cls-1" d="M355.56,937.05l.28-.44-.12.17C355.66,936.87,355.61,937,355.56,937.05Z"/><path class="cls-1" d="M354.42,938.92c.07-.11.14-.22.2-.33l-.15.24A.41.41,0,0,1,354.42,938.92Z"/><path class="cls-1" d="M574.43,809.45h0l.39.13.37.12C574.94,809.61,574.69,809.53,574.43,809.45Z"/><path class="cls-1" d="M349.22,950.79c.14-.47.28-.93.44-1.39l0,.06C349.49,949.9,349.35,950.34,349.22,950.79Z"/><path class="cls-1" d="M350.29,947.61c.09-.24.18-.47.28-.71l-.12.28C350.4,947.32,350.35,947.46,350.29,947.61Z"/><path class="cls-1" d="M351.26,945.21l.11-.26,0,.06Z"/><path class="cls-1" d="M348.15,955c.05-.25.1-.5.16-.75,0,.14-.07.29-.1.44S348.17,954.9,348.15,955Z"/><path class="cls-1" d="M357.06,934.79c.06-.1.13-.18.19-.27l-.13.18Z"/><path class="cls-1" d="M347.61,958.23l.09-.65c0,.15-.05.3-.07.46S347.62,958.16,347.61,958.23Z"/><path class="cls-1" d="M575.29,809.74l.42.18-.26-.12Z"/><path class="cls-1" d="M575.71,809.9l-.26-.1.26.12.29.11Z"/><path class="cls-1" d="M363.22,927.43l.8-.78-.7.67Z"/><path class="cls-1" d="M576.17,810.11l.4.21-.32-.17Z"/><path class="cls-1" d="M358.6,932.69l.21-.27a.39.39,0,0,0-.08.1Z"/><path class="cls-1" d="M576.92,810.5c-.22-.13-.44-.24-.67-.35l.32.17.39.2Z"/><path class="cls-1" d="M348.82,952.16c.09-.33.19-.67.29-1-.08.25-.15.5-.22.76A2.17,2.17,0,0,0,348.82,952.16Z"/><path class="cls-1" d="M360.25,930.64l.54-.63-.1.12Z"/><path class="cls-19" d="M561,811.65l.14-.08.15-.08.25-.12.71-.34.12-.06,0,0,.87-.38-40.07-23.29c-.3.12-.59.24-.88.38l-.12.06q-.49.22-1,.48l-.29.15c-.37.19-.74.39-1.11.61l40.08,23.29Z"/><path class="cls-29" d="M561.27,811.49l.07,0,.18-.09Z"/><path class="cls-19" d="M563.45,810.49l.11,0,.13-.05c.34-.14.69-.27,1-.38l0,0,.1,0,.94-.29.14,0,.07,0,.1,0L526,786.3l-.11,0-.15,0-1,.31-.11,0-1.06.39-.21.09-.21.09,40.07,23.29Z"/><path class="cls-19" d="M566.69,809.45l.39-.1h0c.26-.06.52-.1.78-.14l.29-.06h0l-40.08-23.3c-.36.06-.73.13-1.09.21l-.35.08-.68.17,40.08,23.29Z"/><path class="cls-19" d="M568.22,809.14h0c.31,0,.63-.08.94-.11h.09l.26,0,.46,0L530,785.67l-.47,0-.32,0-1,.12h0l40.08,23.3Z"/><path class="cls-19" d="M570.22,809h1.4l-40.08-23.29H530L570,809Z"/><path class="cls-19" d="M572.38,809h.06l.17,0,.47.07L533,785.86l-.49-.08-.19,0-.8-.07L571.62,809Z"/><path class="cls-19" d="M573.27,809.18l.15,0,.15,0,.64.16.16,0h.06l-40.08-23.29h0l-.05,0c-.27-.07-.53-.14-.8-.19l-.25-.05-.22,0,40.06,23.28Z"/><path class="cls-19" d="M575.18,809.7l.11,0,.16.06.26.1-40-23.25-.32-.14-.22-.08c-.26-.1-.53-.19-.8-.27l40.08,23.29C574.69,809.53,574.94,809.61,575.18,809.7Z"/><path class="cls-19" d="M576,810l.17.08.08,0c.23.11.45.22.67.35l-40-23.23c-.26-.15-.52-.29-.78-.41l-.16-.08-.32-.13,40,23.25Z"/><path class="cls-19" d="M577,810.52h0l.08,0L537,787.28h0l40,23.23Z"/><polygon class="cls-19" points="347.32 962.76 307.24 939.47 307.49 1027.88 347.57 1051.17 347.32 962.76"/><polygon class="cls-19" points="559.87 812.25 519.79 788.96 331.31 897.78 371.39 921.07 559.87 812.25"/><path class="cls-30" d="M559.87,812.25l1.11-.61h0Z"/><path class="cls-30" d="M564.07,810.26c.23-.09.45-.18.67-.25h0Z"/><path class="cls-30" d="M570.87,809h0Z"/><path class="cls-30" d="M569.81,809l.45,0h0Z"/><path class="cls-30" d="M575.71,809.92l.38.16L576,810Z"/><path class="cls-30" d="M577,810.52l-.39-.2.44.23,0,0Z"/><path class="cls-24" d="M584.1,826.06c0-7.64-2.73-13-7.09-15.51l-.44-.23-.4-.21-.08,0-.38-.16-.42-.18,0,0-.43-.14-.44-.14h0c-.16-.05-.33-.08-.49-.12l-.46-.11-.09,0-.42-.07-.47-.07h0l-.52,0-.49,0h-1.16l-.45,0-.51,0h-.06l-.52.07-.52.06-.59.11-.53.1-.3.08-.33.08-.52.13-.09,0-.56.17-.53.16h0c-.22.07-.44.16-.67.25l-.51.19-.09,0-.65.29-.47.2-.09,0-.6.29-.32.16-.22.11-.14.07-1.11.61L371.39,921.07c-.39.23-.77.46-1.16.71l-.37.24-.78.51-.42.31-.72.51-.43.33c-.24.18-.48.36-.71.55l-.4.32-.8.68-.29.25c-.36.31-.72.63-1.07,1l-.22.21-.8.78q-.62.62-1.23,1.26l-.06.07L360.79,930l-.54.63-.46.55-.54.68c-.15.18-.3.36-.44.55l-.21.27q-.69.9-1.35,1.83c-.06.09-.13.17-.19.27-.42.59-.82,1.2-1.22,1.82l-.28.44c-.32.51-.63,1-.94,1.54-.06.11-.13.22-.2.33-.34.59-.68,1.19-1,1.8-.08.14-.15.29-.23.44l-.74,1.45c-.08.17-.16.33-.23.49-.3.61-.58,1.23-.85,1.85l-.11.26c-.24.56-.47,1.13-.69,1.69-.1.24-.19.47-.28.71l-.15.43c-.14.37-.28.75-.41,1.13,0,.08-.05.15-.07.23-.16.46-.3.92-.44,1.39,0,.12-.08.25-.11.37-.1.33-.2.67-.29,1s-.11.41-.16.62l-.21.83c-.05.21-.1.42-.14.64s-.11.5-.16.75-.13.63-.19,1-.08.43-.11.65-.1.65-.15,1l-.09.65c0,.15,0,.29-.05.44,0,.31-.07.62-.1.93l0,.48q0,.46-.06.93c0,.14,0,.28,0,.42,0,.45,0,.89,0,1.33l.25,88.41,236.78-136.7Z"/><path class="cls-30" d="M561.34,811.46l.32-.16a.61.61,0,0,1-.14.07Z"/><path class="cls-30" d="M572.91,809.12l.42.07h-.06Z"/><path class="cls-30" d="M571.91,809l.52,0h0Z"/><path class="cls-30" d="M566.45,809.51l.33-.08-.09,0Z"/><path class="cls-30" d="M561.66,811.3l.6-.29,0,0Z"/><path class="cls-30" d="M561.52,811.37a.61.61,0,0,0,.14-.07l.57-.27Z"/><path class="cls-30" d="M562.82,810.77l.65-.29h0Z"/><path class="cls-30" d="M573.88,809.32c.16,0,.33.07.49.12l-.16,0Z"/><path class="cls-30" d="M568.72,809.08l.52-.07h0Z"/><path class="cls-30" d="M567.91,809.2l-.3,0,.59-.11h0Z"/><path class="cls-30" d="M574.81,809.58l.43.14-.06,0Z"/><path class="cls-30" d="M565.28,809.84l.56-.17h-.05Z"/><path class="cls-30" d="M562.26,811l.09,0-.12.06Z"/><path class="cls-30" d="M561,811.64l.14-.07-.14.08Z"/><path class="cls-30" d="M563.47,810.48l.09,0-.11,0Z"/><path class="cls-30" d="M564.74,810h0l0,0Z"/><path class="cls-30" d="M565.84,809.67l.09,0-.14,0Z"/><path class="cls-30" d="M566.78,809.43l.3-.08-.39.1Z"/><path class="cls-30" d="M569.24,809h0Z"/><path class="cls-30" d="M571.28,809h0Z"/><path class="cls-30" d="M570.26,809h0Z"/><path class="cls-30" d="M572.43,809.05Z"/><path class="cls-30" d="M574.37,809.44h0l-.16,0Z"/><path class="cls-30" d="M573.33,809.19l.09,0-.15,0Z"/><path class="cls-30" d="M575.24,809.72l0,0-.11,0Z"/><path class="cls-30" d="M576.09,810.08l.08,0L576,810Z"/><path class="cls-19" d="M331.31,897.78l-3.1,2.52c-.41.32-2.09,1.74-3.1,2.62a69.88,69.88,0,0,0-8.15,8.61,44,44,0,0,0-6.49,12,44.76,44.76,0,0,0-3.23,15.9l40.08,23.29c-.39-.23.22-3.93.28-4.37a50.54,50.54,0,0,1,5.82-17.67c.76-1.42,1.57-2.81,2.45-4.16a50.89,50.89,0,0,1,14-14.54l.37-.24c.39-.25.77-.48,1.16-.71Z"/><path class="cls-31" d="M577.33,833.45c0-7.29-2.61-12.41-6.77-14.81-.13-.08-.27-.14-.41-.22l-.39-.2-.08,0-.36-.15-.4-.17,0,0-.4-.13-.42-.14h0l-.46-.11-.44-.11h-.09l-.4-.07-.45-.07h0l-.5-.05c-.15,0-.3,0-.46,0h-1.11l-.43,0-.48,0h-.06c-.17,0-.33,0-.5.06s-.33,0-.49.06l-.57.1-.51.1-.28.07-.31.08-.51.12-.08,0-.53.17c-.17,0-.34.09-.5.15h0l-.64.24-.49.18-.09,0-.62.27-.45.19-.08,0-.58.28-.31.15-.21.11-.12.07c-.35.18-.71.37-1.06.58L374.31,924.13l-1.11.67-.35.23-.74.5-.41.28-.68.5-.41.3-.68.54-.39.3-.75.64-.28.24c-.35.3-.69.61-1,.92l-.21.21-.77.73c-.39.4-.79.8-1.17,1.21l-.06.06q-.55.6-1.08,1.2l-.52.6-.44.52-.52.65-.42.53c-.07.09-.13.18-.2.26-.44.57-.87,1.15-1.28,1.74l-.19.26c-.4.57-.78,1.15-1.16,1.74l-.27.42c-.31.49-.61,1-.9,1.47l-.19.32c-.32.56-.64,1.13-.95,1.71-.08.14-.15.28-.22.42l-.71,1.39-.22.46q-.42.89-.81,1.77c0,.08-.07.17-.11.25-.23.54-.44,1.07-.66,1.61-.08.23-.17.45-.26.68l-.15.41c-.13.36-.26.72-.38,1.08,0,.07-.05.14-.07.22-.15.44-.29.88-.43,1.32,0,.12-.06.24-.1.36l-.27.95c0,.2-.1.4-.16.6s-.13.52-.19.79-.1.4-.14.6-.11.48-.16.72-.11.6-.17.9-.08.42-.11.63-.1.62-.14.93l-.09.62c0,.15,0,.29-.05.43l-.09.88,0,.46c0,.3,0,.6-.06.89s0,.27,0,.4c0,.43,0,.85,0,1.27l.24,80.57L577.57,914Z"/><polygon class="cls-13" points="402.69 980.34 402.65 968.08 406.91 960.72 409.05 961.94 409.09 979.1 406.97 982.78 402.69 980.34"/><polygon class="cls-13" points="408.98 939.88 409.03 957.04 406.91 960.72 402.63 958.27 402.59 946.02 406.84 938.65 408.98 939.88"/><polygon class="cls-13" points="418.31 954.14 421.5 948.62 432.17 942.46 435.38 944.28 432.19 949.81 421.52 955.97 418.31 954.14"/><polygon class="cls-13" points="437.44 920.99 439.58 922.21 439.63 939.37 437.51 943.05 433.23 940.61 433.19 928.36 437.44 920.99"/><polygon class="cls-13" points="421.56 970.68 432.23 964.52 436.51 966.96 434.38 970.64 419.45 979.26 417.31 978.04 421.56 970.68"/><polygon class="cls-13" points="420.45 957.81 420.49 970.07 416.24 977.43 414.09 976.21 414.05 959.05 416.18 955.37 420.45 957.81"/><polygon class="cls-13" points="432.12 927.75 421.46 933.91 417.18 931.46 419.3 927.78 434.24 919.16 436.38 920.38 432.12 927.75"/><polygon class="cls-13" points="456.39 939.51 458.53 938.28 461.74 940.11 458.56 945.63 456.42 946.87 453.21 945.03 456.39 939.51"/><polygon class="cls-13" points="458.49 923.57 456.35 924.8 453.14 922.97 456.33 917.45 458.47 916.22 461.68 918.04 458.49 923.57"/><polygon class="cls-13" points="482.76 935.34 493.43 929.18 497.71 931.62 495.58 935.3 480.65 943.92 478.51 942.7 482.76 935.34"/><g class="cls-2"><polygon class="cls-13" points="494.5 927.34 494.46 915.08 498.71 907.72 500.85 908.94 500.9 926.1 498.77 929.78 494.5 927.34"/><polygon class="cls-13" points="479.51 918.8 482.7 913.28 493.37 907.12 496.58 908.95 493.39 914.47 482.72 920.63 479.51 918.8"/><polygon class="cls-13" points="500.79 886.88 500.84 904.04 498.71 907.72 494.43 905.27 494.4 893.02 498.65 885.65 500.79 886.88"/></g><polygon class="cls-13" points="493.33 892.41 482.66 898.57 478.38 896.12 480.5 892.44 495.44 883.82 497.58 885.04 493.33 892.41"/><g class="cls-2"><polygon class="cls-13" points="525.1 909.67 525.06 897.41 529.31 890.05 531.46 891.26 531.51 908.42 529.38 912.11 525.1 909.67"/><polygon class="cls-13" points="531.4 869.2 531.45 886.36 529.31 890.05 525.03 887.6 525 875.35 529.25 867.98 531.4 869.2"/></g><polygon class="cls-13" points="618.01 238.31 618.02 240.23 614.53 242.25 614.56 253.97 612.63 255.09 612.59 243.36 609.1 245.38 609.09 243.46 618.01 238.31"/><path class="cls-13" d="M621.54,235.41v3.68c0,.59,0,1.24-.1,1.95l.12-.07a6.24,6.24,0,0,1,1.08-1.78,6.17,6.17,0,0,1,1.62-1.35c2.17-1.26,3.27-.62,3.28,1.89v6.73l-1.91,1.11,0-6.35a2,2,0,0,0-.42-1.54c-.28-.23-.73-.17-1.33.18a4.23,4.23,0,0,0-1.76,1.85,7,7,0,0,0-.56,3.09l0,5.12-1.91,1.1,0-14.51Z"/><path class="cls-13" d="M637.61,234.8V236l-6,3.46c0,1,.27,1.62.72,1.9s1.07.19,1.87-.27a10.52,10.52,0,0,0,1.48-1,16,16,0,0,0,1.47-1.43v1.79a13.53,13.53,0,0,1-1.41,1.35,13.21,13.21,0,0,1-1.63,1.1c-1.4.8-2.49,1-3.28.49s-1.19-1.54-1.2-3.18a9.83,9.83,0,0,1,1.09-4.61,7.73,7.73,0,0,1,3-3.19c1.18-.68,2.12-.81,2.81-.38S637.61,233.35,637.61,234.8Zm-6,3,4.07-2.36c0-.84-.19-1.39-.54-1.62s-.82-.18-1.43.17a3.88,3.88,0,0,0-1.45,1.5,5.48,5.48,0,0,0-.65,2.31"/><path class="cls-13" d="M646.17,223.09v2.29l2.55-1.47v1.66L646.18,227l0,5.52c0,.53.12.85.35,1a.92.92,0,0,0,.9-.14,7.94,7.94,0,0,0,1.4-1.06V234a6.25,6.25,0,0,1-.82.74,7.79,7.79,0,0,1-1,.7c-1.81,1.05-2.71.47-2.72-1.71v-5.56l-1.23.7v-1l1.31-1.56.64-2.55Z"/><polygon class="cls-13" points="650.65 233.13 650.62 222.82 652.52 221.72 652.55 232.03 650.65 233.13"/><path class="cls-13" d="M651.58,220.73c-.35.2-.62.25-.8.14a.77.77,0,0,1-.29-.72,2.16,2.16,0,0,1,.28-1.07,2.19,2.19,0,0,1,.8-.77.82.82,0,0,1,.79-.14c.18.11.28.35.28.74a2.11,2.11,0,0,1-1.06,1.82Z"/><path class="cls-13" d="M665.4,214.09c1.08-.62,1.85-.75,2.35-.42s.74,1.15.74,2.42l0,6.73-1.91,1.1,0-6.36a2.14,2.14,0,0,0-.4-1.54c-.26-.23-.67-.2-1.22.12a4,4,0,0,0-1.63,1.74,6.48,6.48,0,0,0-.5,2.74l0,5.47-1.93,1.11v-6.36a2.17,2.17,0,0,0-.4-1.54c-.25-.25-.66-.21-1.21.11a3.83,3.83,0,0,0-1.62,1.76,7.52,7.52,0,0,0-.51,3.05v5.14l-1.9,1.1,0-10.32,1.5-.86.27,1.2.09-.06a5.92,5.92,0,0,1,1.09-1.76,6.14,6.14,0,0,1,1.55-1.31c1.38-.79,2.3-.78,2.75,0l.13-.07a6.88,6.88,0,0,1,1.12-1.84A6.43,6.43,0,0,1,665.4,214.09Z"/><path class="cls-13" d="M678.56,211.16v1.18l-6,3.46a2.27,2.27,0,0,0,.72,1.9c.44.28,1.07.19,1.88-.28a11.14,11.14,0,0,0,1.48-1,15.77,15.77,0,0,0,1.46-1.42v1.78a11.76,11.76,0,0,1-1.41,1.35,11.57,11.57,0,0,1-1.63,1.1c-1.4.81-2.49,1-3.28.49s-1.18-1.54-1.19-3.18a9.85,9.85,0,0,1,1.08-4.61,7.71,7.71,0,0,1,3-3.18c1.19-.69,2.12-.81,2.81-.38S678.56,209.71,678.56,211.16Zm-5.95,3,4.08-2.35c0-.85-.2-1.39-.54-1.63s-.83-.18-1.43.17a3.83,3.83,0,0,0-1.46,1.5,5.67,5.67,0,0,0-.65,2.31"/><path class="cls-13" d="M692.24,200c.63.57,1,1.7,1,3.38a10.06,10.06,0,0,1-.94,4.5,6.59,6.59,0,0,1-2.63,2.94c-1.14.65-2,.69-2.65.12l-.13.07-.34,1.43-1.44.82,0-14.51,1.91-1.1v3.45c0,.25,0,.64,0,1.16s0,.84,0,1l.08,0a6.36,6.36,0,0,1,2.67-3.09C690.74,199.46,691.61,199.43,692.24,200Zm-1.53,7.47a7.55,7.55,0,0,0,.53-3c0-2.35-.72-3.12-2.11-2.31a3.86,3.86,0,0,0-1.65,1.73,6.89,6.89,0,0,0-.52,2.91V207a3.83,3.83,0,0,0,.52,2.43c.35.37.92.32,1.71-.14a3.63,3.63,0,0,0,1.52-1.8"/><path class="cls-13" d="M702.82,197.16v1.18l-6,3.45c0,1,.26,1.62.71,1.91s1.07.19,1.88-.28a11.14,11.14,0,0,0,1.48-1,17.11,17.11,0,0,0,1.47-1.42v1.78A11.82,11.82,0,0,1,701,204.1a11.57,11.57,0,0,1-1.63,1.1c-1.4.81-2.49,1-3.28.49s-1.19-1.54-1.19-3.18A9.74,9.74,0,0,1,696,197.9a7.62,7.62,0,0,1,3-3.18c1.19-.69,2.12-.81,2.81-.38S702.81,195.7,702.82,197.16Zm-6,3,4.07-2.35c0-.85-.2-1.39-.54-1.63s-.83-.18-1.43.17a3.83,3.83,0,0,0-1.46,1.5,5.48,5.48,0,0,0-.64,2.31"/><path class="cls-13" d="M707.06,187.93v2.3l2.56-1.47v1.65l-2.55,1.48v5.52c0,.53.12.85.35,1a.94.94,0,0,0,.91-.14,7.9,7.9,0,0,0,1.39-1.06v1.65a6.09,6.09,0,0,1-.81.73,7.09,7.09,0,0,1-1,.71c-1.8,1-2.71.47-2.71-1.71l0-5.57-1.22.71v-1l1.32-1.56.64-2.55Z"/><path class="cls-13" d="M723.54,180.72,721,192.49l-2.15,1.24-1.17-4.14c-.15-.43-.41-1.46-.77-3.12l-.08.05c-.31,1.86-.55,3.19-.74,4L715,196l-2.12,1.22-2.54-8.86,2-1.12,1.15,4.41a28.25,28.25,0,0,1,.57,2.91l0,0c.06-.49.14-1.06.25-1.71s.21-1.15.28-1.48l1.35-6.22,2.1-1.21,1.33,4.67a10.81,10.81,0,0,1,.31,1.22,8.3,8.3,0,0,1,.22,1.34l.07,0c.07-.81.26-2,.56-3.54l1.14-5.74Z"/><path class="cls-13" d="M732.5,180v1.18l-6,3.45a2.21,2.21,0,0,0,.71,1.91c.44.27,1.07.18,1.87-.28a11.25,11.25,0,0,0,1.49-1,15.77,15.77,0,0,0,1.46-1.42v1.78a11.06,11.06,0,0,1-1.41,1.35,12.49,12.49,0,0,1-1.63,1.1c-1.4.81-2.49,1-3.28.49s-1.19-1.54-1.19-3.18a9.62,9.62,0,0,1,1.08-4.61,7.71,7.71,0,0,1,3-3.18c1.19-.69,2.12-.81,2.81-.39S732.5,178.57,732.5,180Zm-6,3,4.08-2.35c0-.85-.2-1.39-.54-1.63s-.83-.18-1.44.17a3.88,3.88,0,0,0-1.45,1.5,5.63,5.63,0,0,0-.65,2.31"/><path class="cls-13" d="M742.08,174.49v1.18l-6,3.45a2.26,2.26,0,0,0,.71,1.91c.45.27,1.08.19,1.88-.28a11.14,11.14,0,0,0,1.48-1,14.62,14.62,0,0,0,1.47-1.42v1.78a10.44,10.44,0,0,1-1.41,1.35,11.45,11.45,0,0,1-1.62,1.1c-1.4.81-2.49,1-3.28.49s-1.19-1.54-1.19-3.18a9.62,9.62,0,0,1,1.08-4.61,7.71,7.71,0,0,1,3-3.18c1.18-.69,2.12-.81,2.81-.38S742.07,173,742.08,174.49Zm-6,3,4.07-2.35c0-.85-.19-1.39-.54-1.63s-.82-.18-1.43.17a3.81,3.81,0,0,0-1.45,1.5,5.48,5.48,0,0,0-.65,2.31"/><path class="cls-13" d="M748.9,165.88c2.15-1.24,3.24-.6,3.24,1.92l0,6.72-1.91,1.11,0-6.35a2,2,0,0,0-.43-1.54c-.28-.22-.72-.17-1.33.18a4.34,4.34,0,0,0-1.76,1.85,7,7,0,0,0-.55,3.07V178l-1.91,1.1,0-10.31,1.5-.86.27,1.19.1,0a6.15,6.15,0,0,1,1.14-1.8A6.7,6.7,0,0,1,748.9,165.88Z"/><path class="cls-13" d="M765.94,161.05a2.13,2.13,0,0,1,.59,1.64,6,6,0,0,1-1.07,3.32,8.48,8.48,0,0,1-2.92,2.71c-1.29.74-2.29,1-3,.77s-1.06-.92-1.07-2.08A5.81,5.81,0,0,1,759,165a11.42,11.42,0,0,1,1.82-2.67,2.17,2.17,0,0,1-1.55-.68,2.39,2.39,0,0,1-.47-1.6,5.13,5.13,0,0,1,1-3,8.07,8.07,0,0,1,2.65-2.4,3.52,3.52,0,0,1,2.67-.66c.66.22,1,.83,1,1.82a7.27,7.27,0,0,1-2.18,4.6A2.87,2.87,0,0,1,765.94,161.05Zm-1.81,4.52a3.24,3.24,0,0,0,.57-1.85,1.14,1.14,0,0,0-.54-1.07,2.81,2.81,0,0,0-1.62-.22l-.24,0a9.68,9.68,0,0,0-1.53,2.07,3.84,3.84,0,0,0-.47,1.76c0,.65.2,1,.6,1.17a2.09,2.09,0,0,0,1.6-.39,4.91,4.91,0,0,0,1.63-1.49m-3.47-6.38a1.38,1.38,0,0,0,.18.76,1,1,0,0,0,.52.4,4.16,4.16,0,0,0,1.15.09,9.17,9.17,0,0,0,1.38-1.84,3.24,3.24,0,0,0,.4-1.5c0-.53-.17-.86-.5-1a1.69,1.69,0,0,0-1.33.3,3.84,3.84,0,0,0-1.31,1.22,2.83,2.83,0,0,0-.49,1.54"/><path class="cls-13" d="M769.53,161.92q.59-.34.9-.15a1,1,0,0,1,.31.86,2.5,2.5,0,0,1-.31,1.23,2.36,2.36,0,0,1-.9.9c-.38.22-.69.27-.89.13a1,1,0,0,1-.31-.87,2.52,2.52,0,0,1,.3-1.23A2.35,2.35,0,0,1,769.53,161.92Z"/><path class="cls-13" d="M769.51,156.8c-.39.22-.69.27-.89.13s-.31-.43-.31-.88a2.27,2.27,0,0,1,1.19-2.1c.41-.23.71-.28.91-.15s.3.42.3.86a2.38,2.38,0,0,1-1.2,2.14Z"/><path class="cls-13" d="M776.31,146.72a3.86,3.86,0,0,1,2.8-.72c.67.21,1,.82,1,1.86a5.48,5.48,0,0,1-.65,2.54,7.32,7.32,0,0,1-1.85,2.23v.07a2.51,2.51,0,0,1,2.15-.21,1.9,1.9,0,0,1,.72,1.76,6.48,6.48,0,0,1-1.2,3.72,10.13,10.13,0,0,1-3.44,3.06,7.6,7.6,0,0,1-3.33,1.19v-1.95a5.86,5.86,0,0,0,1.59-.26,8.13,8.13,0,0,0,1.63-.71,6.33,6.33,0,0,0,2.06-1.77,3.77,3.77,0,0,0,.67-2.22q0-1.08-.75-1.17a4.78,4.78,0,0,0-2.37.86l-1,.59v-1.77l1-.61c1.9-1.09,2.84-2.39,2.84-3.9,0-.58-.17-.94-.5-1.06a1.84,1.84,0,0,0-1.46.36,7.7,7.7,0,0,0-1.3,1,12.39,12.39,0,0,0-1.47,1.71l-.94-1A11.9,11.9,0,0,1,776.31,146.72Z"/><path class="cls-13" d="M789,141.16c.68.8,1,2.35,1,4.65a14.88,14.88,0,0,1-1,5.85,7.11,7.11,0,0,1-3,3.48c-1.32.76-2.32.75-3,0s-1-2.33-1-4.63a15,15,0,0,1,1-5.89,7.14,7.14,0,0,1,3-3.46C787.34,140.34,788.34,140.36,789,141.16Zm-1.38,10a14.35,14.35,0,0,0,.49-4.26,8.92,8.92,0,0,0-.52-3.68c-.34-.62-.87-.72-1.6-.3a3.65,3.65,0,0,0-1.6,2.13,14,14,0,0,0-.48,4.27,8.68,8.68,0,0,0,.51,3.7c.33.61.87.7,1.6.27a3.73,3.73,0,0,0,1.6-2.13"/><path class="cls-13" d="M801.63,132.25l4.48,11.13L804,144.57l-1.19-3.11-4.54,2.62-1.15,4.46-2,1.18,4.4-16.25Zm-2.76,9.59,3.46-2-1.12-3.07c-.08-.2-.2-.53-.34-1s-.24-.79-.3-1c-.15.86-.35,1.82-.63,2.88l-1.07,4.18"/><path class="cls-13" d="M819.85,121.79l0,13.64L818,136.5l0-6.74c0-.68,0-1.57,0-2.67s.05-1.79.07-2l-.07,0-3.53,13.43-1.71,1-3.47-9.4-.06,0c.09,1.64.14,3.2.14,4.68l0,6.63-1.76,1,0-13.64,2.74-1.58,3.33,8.94,0,0,3.37-12.8Z"/><path class="cls-13" d="M833.21,118.07c.58.24.88,1,.88,2.19l0,6.95-1.37.79-.38-1.22-.07,0a8.68,8.68,0,0,1-1.3,2,7.06,7.06,0,0,1-1.69,1.31c-.88.51-1.57.64-2.07.37s-.74-.89-.75-1.89a5,5,0,0,1,1-3,10.67,10.67,0,0,1,3.14-2.7l1.54-1v-.55c0-.66-.13-1.08-.4-1.25s-.69-.09-1.25.23a7.17,7.17,0,0,0-1.32,1c-.42.4-.83.82-1.22,1.25l-.62-1.21a12.65,12.65,0,0,1,1.6-1.59,12.23,12.23,0,0,1,1.64-1.18C831.76,118,832.62,117.83,833.21,118.07Zm-1,6.21v-.9l-1.16.73a7.23,7.23,0,0,0-2,1.65,2.88,2.88,0,0,0-.61,1.77c0,.46.13.74.36.86s.6,0,1.08-.25a4.52,4.52,0,0,0,1.66-1.62,4.21,4.21,0,0,0,.63-2.24"/><path class="cls-13" d="M841.4,112.48c2.16-1.25,3.24-.6,3.24,1.91l0,6.73-1.91,1.1,0-6.34a2.07,2.07,0,0,0-.42-1.54c-.28-.23-.72-.17-1.33.18a4.23,4.23,0,0,0-1.77,1.84,7.15,7.15,0,0,0-.55,3.07v5.15l-1.91,1.1,0-10.32,1.49-.86.27,1.2.1-.06a6.19,6.19,0,0,1,1.15-1.8A7,7,0,0,1,841.4,112.48Z"/><path class="cls-13" d="M853,101.77l1.92-1.1,0,14.51-1.5.86-.33-1.16-.09.05a6.43,6.43,0,0,1-2.68,3.09c-1.12.65-2,.68-2.63.11s-1-1.69-1-3.38a10,10,0,0,1,.94-4.49,6.52,6.52,0,0,1,2.64-3c1.18-.68,2.08-.7,2.7,0l.1-.06a12,12,0,0,1-.15-1.67Zm.12,9.65v-.31c0-1.29-.19-2.11-.57-2.45s-.94-.28-1.72.18a3.73,3.73,0,0,0-1.55,1.83,7.48,7.48,0,0,0-.54,3,3.65,3.65,0,0,0,.54,2.32c.35.4.88.39,1.58,0a4.17,4.17,0,0,0,1.71-1.75,6.31,6.31,0,0,0,.55-2.79"/><path class="cls-13" d="M868.41,93.75v2l-4.49,2.59-.25,3.53.69-.53a8.29,8.29,0,0,1,1-.65c1.2-.69,2.14-.87,2.84-.55s1.06,1.11,1.06,2.37a7.57,7.57,0,0,1-1.18,4.1,9.33,9.33,0,0,1-3.38,3.17,6,6,0,0,1-3.13,1.07v-2a4.12,4.12,0,0,0,1.51-.22,7.06,7.06,0,0,0,1.59-.68,5.6,5.6,0,0,0,2-1.79,4.25,4.25,0,0,0,.67-2.33q0-2.44-2.72-.88a11,11,0,0,0-.94.63c-.38.28-.7.53-1,.77l-.86-.09.44-6.92Z"/><path class="cls-13" d="M872.39,102.53c.4-.23.7-.28.9-.14s.31.41.31.85a2.5,2.5,0,0,1-.31,1.23,2.2,2.2,0,0,1-.89.9c-.39.23-.69.27-.9.13s-.3-.42-.31-.87a2.38,2.38,0,0,1,.31-1.22A2.35,2.35,0,0,1,872.39,102.53Z"/><path class="cls-13" d="M872.38,97.41c-.39.23-.69.27-.9.13a1,1,0,0,1-.31-.87,2.27,2.27,0,0,1,1.2-2.11c.4-.23.71-.28.91-.15a1,1,0,0,1,.3.87,2.5,2.5,0,0,1-.31,1.23A2.4,2.4,0,0,1,872.38,97.41Z"/><path class="cls-13" d="M879.16,87.34a3.87,3.87,0,0,1,2.81-.73q1,.31,1,1.86a5.35,5.35,0,0,1-.66,2.54,7.31,7.31,0,0,1-1.84,2.23v.08a2.49,2.49,0,0,1,2.14-.22c.48.27.72.86.72,1.76a6.53,6.53,0,0,1-1.2,3.73,10.2,10.2,0,0,1-3.44,3,7.52,7.52,0,0,1-3.33,1.19v-2a5.61,5.61,0,0,0,1.6-.26,7.7,7.7,0,0,0,1.62-.7,6.25,6.25,0,0,0,2.06-1.78,3.82,3.82,0,0,0,.68-2.21c0-.73-.26-1.12-.76-1.18a4.78,4.78,0,0,0-2.37.86l-1,.59V94.43l1.05-.61c1.89-1.09,2.84-2.39,2.83-3.9,0-.58-.17-.93-.5-1.06a1.85,1.85,0,0,0-1.46.37,7.2,7.2,0,0,0-1.3,1,13.71,13.71,0,0,0-1.47,1.7l-.94-1A11.93,11.93,0,0,1,879.16,87.34Z"/><path class="cls-13" d="M891.89,81.77c.68.8,1,2.35,1,4.65a14.89,14.89,0,0,1-1,5.85,7.12,7.12,0,0,1-3,3.48c-1.32.77-2.32.75-3,0s-1-2.34-1-4.64a14.81,14.81,0,0,1,1-5.89,7.14,7.14,0,0,1,3-3.46C890.2,81,891.21,81,891.89,81.77Zm-1.38,10a13.72,13.72,0,0,0,.49-4.26,8.79,8.79,0,0,0-.51-3.68c-.34-.62-.88-.72-1.61-.3a3.7,3.7,0,0,0-1.59,2.13A14.32,14.32,0,0,0,886.8,90a9,9,0,0,0,.51,3.69c.33.61.87.7,1.6.28a3.72,3.72,0,0,0,1.6-2.14"/><path class="cls-13" d="M906.26,73c.73.26,1.11,1.08,1.11,2.43a7,7,0,0,1-1.2,4,10,10,0,0,1-3.47,3.13l-1.23.72,0,5.1-1.94,1.12,0-13.64,3.41-2C904.4,73,905.52,72.68,906.26,73Zm-1.58,5.93a3.86,3.86,0,0,0,.7-2.27c0-.79-.22-1.25-.63-1.4a2.69,2.69,0,0,0-2,.55l-1.35.78,0,4.8,1-.6a6.49,6.49,0,0,0,2.19-1.86"/><path class="cls-13" d="M922,62.84l0,13.64-1.87,1.08,0-6.75q0-1,0-2.67c0-1.11.06-1.79.08-2l-.07,0-3.53,13.43-1.71,1-3.47-9.4-.07,0q.15,2.46.15,4.68l0,6.63-1.76,1,0-13.64,2.74-1.58,3.32,8.94.05,0,3.36-12.8Z"/><polygon class="cls-13" points="929.23 72.3 929.2 61.98 931.1 60.88 931.13 71.2 929.23 72.3"/><path class="cls-13" d="M930.16,59.89c-.35.2-.62.25-.8.14s-.28-.35-.28-.72a1.93,1.93,0,0,1,.27-1.06,2.22,2.22,0,0,1,.8-.78c.33-.19.59-.24.78-.13s.28.35.28.74a1.93,1.93,0,0,1-.27,1A2.06,2.06,0,0,1,930.16,59.89Z"/><path class="cls-13" d="M936.72,57.45a6.75,6.75,0,0,1,3-1l-.62,2a5.94,5.94,0,0,0-2.44.72c-1,.58-1.51,1.2-1.51,1.85a.54.54,0,0,0,.4.6,5.59,5.59,0,0,0,1.72-.07,4.93,4.93,0,0,1,1.62,0,1.22,1.22,0,0,1,.74.51,2.16,2.16,0,0,1,.25,1.15,4.91,4.91,0,0,1-1,2.87,8.55,8.55,0,0,1-2.74,2.39,6.35,6.35,0,0,1-2.88,1V67.61a6.37,6.37,0,0,0,3-.87c1.17-.67,1.76-1.42,1.75-2.23a.62.62,0,0,0-.19-.54,1.12,1.12,0,0,0-.64-.17,6.88,6.88,0,0,0-1.25.08,3.27,3.27,0,0,1-2.1-.17,1.67,1.67,0,0,1-.55-1.48,4.27,4.27,0,0,1,.92-2.59A8,8,0,0,1,936.72,57.45Z"/><path class="cls-13" d="M942.86,61.85q.58-.35.9-.15c.21.14.31.41.31.85a2.44,2.44,0,0,1-1.2,2.14c-.39.22-.69.27-.9.13a1,1,0,0,1-.31-.87,2.49,2.49,0,0,1,.3-1.23A2.35,2.35,0,0,1,942.86,61.85Z"/><path class="cls-13" d="M942.84,56.73c-.39.22-.68.27-.89.13s-.31-.43-.31-.88a2.27,2.27,0,0,1,1.2-2.1c.4-.24.7-.29.91-.15s.3.42.3.86a2.5,2.5,0,0,1-.31,1.23A2.38,2.38,0,0,1,942.84,56.73Z"/><path class="cls-13" d="M617.38,287.2a6.73,6.73,0,0,1,.54,2.91,14.65,14.65,0,0,1-1.47,6.87,11.07,11.07,0,0,1-4.46,4.57,9.39,9.39,0,0,1-1.6.79V300a6.39,6.39,0,0,0,1.42-.63,8.51,8.51,0,0,0,2.07-1.62,6.19,6.19,0,0,0,1.24-2,8.88,8.88,0,0,0,.48-2.78l-.09.05a7.07,7.07,0,0,1-1.08,1.86,6,6,0,0,1-1.55,1.24c-1,.6-1.84.69-2.44.27s-.9-1.31-.9-2.66a8,8,0,0,1,1.07-4.09,7.72,7.72,0,0,1,2.95-3,3.68,3.68,0,0,1,2.3-.63A2,2,0,0,1,617.38,287.2Zm-2.5,5a3.11,3.11,0,0,0,.54-1.63,2.11,2.11,0,0,0-.51-1.59,1,1,0,0,0-1.3,0,3,3,0,0,0-1.21,1.32,4.45,4.45,0,0,0-.44,2,1.78,1.78,0,0,0,.4,1.34c.27.23.67.19,1.22-.12a3.77,3.77,0,0,0,1.3-1.33"/><path class="cls-13" d="M626.56,278.42v2.95c0,.23,0,.79-.05,1.66l0,.86.13-.07a6,6,0,0,1,2.62-3c1.07-.62,1.87-.75,2.43-.42s.83,1.13.83,2.36l0,6.8L630,291l0-6.09c0-1.51-.49-2-1.46-1.42a3.47,3.47,0,0,0-1.5,1.69,7.4,7.4,0,0,0-.46,2.89v4.91l-2.47,1.43,0-14.52Z"/><path class="cls-13" d="M653.8,289.54c1-.59,1.81-.74,2.33-.43s.8,1.12.8,2.45l0,6.8-2.48,1.44,0-6.09a2.41,2.41,0,0,0-.33-1.51c-.23-.24-.57-.23-1,0a3.23,3.23,0,0,0-1.35,1.54,6.44,6.44,0,0,0-.45,2.63v5.23l-2.47,1.43,0-6.09a2.43,2.43,0,0,0-.33-1.51c-.22-.24-.56-.24-1,0a3.11,3.11,0,0,0-1.37,1.59,7.79,7.79,0,0,0-.43,2.89v4.91l-2.47,1.43,0-10.43L645,294.8l.34,1.14.14-.08a5.86,5.86,0,0,1,1-1.73,6,6,0,0,1,1.58-1.32c1.36-.78,2.28-.81,2.76-.07l.22-.12a5.65,5.65,0,0,1,1.08-1.75A6.34,6.34,0,0,1,653.8,289.54Z"/><path class="cls-13" d="M642.74,275.5a5,5,0,0,1,.54,2.55,9.41,9.41,0,0,1-1.15,4.66,8.53,8.53,0,0,1-3.26,3.32,4.07,4.07,0,0,1-2.3.67,1.88,1.88,0,0,1-1.54-1,5.12,5.12,0,0,1-.54-2.57,9.31,9.31,0,0,1,1.15-4.64,8.54,8.54,0,0,1,3.26-3.3,4.14,4.14,0,0,1,2.3-.68A1.87,1.87,0,0,1,642.74,275.5Zm-2.41,6.61a7,7,0,0,0,.43-2.6,3.44,3.44,0,0,0-.45-2.06c-.3-.35-.78-.33-1.44.05a3.29,3.29,0,0,0-1.43,1.59,6.69,6.69,0,0,0-.43,2.58,3.58,3.58,0,0,0,.45,2.09c.3.36.78.35,1.45,0a3.28,3.28,0,0,0,1.42-1.61"/><path class="cls-13" d="M653.64,266.87l0,10.43-1.9,1.1-.33-1.15-.13.08a6.19,6.19,0,0,1-1.13,1.77,6.56,6.56,0,0,1-1.66,1.36c-1.06.61-1.87.75-2.41.41s-.82-1.13-.82-2.37l0-6.8,2.48-1.43v6.09a2.27,2.27,0,0,0,.35,1.5c.24.24.61.21,1.11-.08a3.45,3.45,0,0,0,1.51-1.67,7.56,7.56,0,0,0,.45-2.9V268.3Z"/><path class="cls-13" d="M661.31,262.25a5.44,5.44,0,0,1,.83-.4l-.18,2.78a2.93,2.93,0,0,0-.73.33,5,5,0,0,0-1.84,1.76,4.41,4.41,0,0,0-.66,2.34v5.31l-2.47,1.43,0-10.43,1.87-1.08.37,1.54.12-.07a8.37,8.37,0,0,1,1.14-2.07A5.41,5.41,0,0,1,661.31,262.25Z"/><path class="cls-13" d="M666.83,259.06a7.12,7.12,0,0,1,3.19-1l-.74,2.48a11.9,11.9,0,0,0-1.28.19,4.13,4.13,0,0,0-1.2.48c-.73.42-1.1.86-1.1,1.32a.4.4,0,0,0,.36.45,6.3,6.3,0,0,0,1.55-.06,4.53,4.53,0,0,1,1.56,0,1.21,1.21,0,0,1,.73.57,2.48,2.48,0,0,1,.24,1.2,5.18,5.18,0,0,1-1,3,8.75,8.75,0,0,1-2.89,2.51,12,12,0,0,1-1.69.82,5.32,5.32,0,0,1-1.31.3V269a7,7,0,0,0,1.55-.27,6.8,6.8,0,0,0,1.52-.63c.9-.51,1.35-1.08,1.35-1.68a.51.51,0,0,0-.18-.44,1.43,1.43,0,0,0-.62-.12q-.45,0-1.17.06a4.29,4.29,0,0,1-1.54,0,1.16,1.16,0,0,1-.72-.57,2.75,2.75,0,0,1-.23-1.25,4.59,4.59,0,0,1,.93-2.69A8.55,8.55,0,0,1,666.83,259.06Z"/><path class="cls-13" d="M617,307.78v2.44l-4.24,2.45-.21,2.8.29-.23a9.11,9.11,0,0,1,1.22-.84c1.15-.66,2.06-.81,2.74-.46s1,1.16,1,2.45a7.74,7.74,0,0,1-1.22,4.22,9.75,9.75,0,0,1-3.5,3.25,6.57,6.57,0,0,1-3.2,1.12v-2.5a4.57,4.57,0,0,0,1.5-.22,7.42,7.42,0,0,0,1.62-.68,4,4,0,0,0,2.29-3.5c0-1.37-.8-1.6-2.39-.68a7.88,7.88,0,0,0-.94.64,9.67,9.67,0,0,0-.85.7l-1,0,.43-7.21Z"/><path class="cls-13" d="M626.37,310.94l1.42-.82v2.24l-1.43.82V316l-2.45,1.42V314.6l-5.06,2.92v-2L624,303.71l2.32-1.33Zm-2.43-2.59q0-1.12.06-1.32l-.06,0c-.2.63-.44,1.26-.72,1.91l-2.17,5,2.86-1.65v-2.31c0-.38,0-.95,0-1.7"/><path class="cls-13" d="M635.88,298.45c.7.79,1,2.34,1.06,4.63a14.62,14.62,0,0,1-1,5.88,7.41,7.41,0,0,1-3.14,3.53c-1.36.79-2.4.8-3.1,0s-1.05-2.33-1.05-4.64a14.46,14.46,0,0,1,1-5.9,7.42,7.42,0,0,1,3.11-3.52C634.14,297.66,635.17,297.66,635.88,298.45Zm-1.82,9.89a14,14,0,0,0,.38-3.82,9.47,9.47,0,0,0-.4-3.37.78.78,0,0,0-1.27-.36,2.9,2.9,0,0,0-1.26,1.82,14.4,14.4,0,0,0-.37,3.82,9.85,9.85,0,0,0,.38,3.38c.26.58.68.7,1.28.36a2.9,2.9,0,0,0,1.26-1.83"/><path class="cls-13" d="M660.7,284.45c-.9.52-1.35.32-1.35-.62a2.38,2.38,0,0,1,1.35-2.16c.89-.52,1.34-.31,1.34.61a2.41,2.41,0,0,1-.33,1.23A2.64,2.64,0,0,1,660.7,284.45Z"/><polygon class="cls-13" points="659.49 296.9 659.46 286.46 661.94 285.04 661.97 295.47 659.49 296.9"/><path class="cls-13" d="M669.69,280.37c1-.61,1.85-.75,2.4-.4s.82,1.12.83,2.36l0,6.8-2.47,1.43,0-6.09a2.25,2.25,0,0,0-.36-1.49c-.23-.24-.6-.22-1.11.08a3.5,3.5,0,0,0-1.5,1.66,7.44,7.44,0,0,0-.46,2.91l0,4.91L664.56,294l0-10.43,1.9-1.1.33,1.15.14-.08a6.31,6.31,0,0,1,1.14-1.8A6.65,6.65,0,0,1,669.69,280.37Z"/><path class="cls-13" d="M683.79,272.42l0,10.43-1.91,1.1-.33-1.14-.13.07a6.38,6.38,0,0,1-1.13,1.78,6.74,6.74,0,0,1-1.66,1.35c-1.07.62-1.87.75-2.41.41s-.82-1.13-.82-2.36l0-6.8,2.47-1.43,0,6.1a2.22,2.22,0,0,0,.35,1.48c.24.25.61.22,1.12-.07a3.57,3.57,0,0,0,1.5-1.67,7.28,7.28,0,0,0,.45-2.91v-4.91Z"/><path class="cls-13" d="M689.12,267.12v2.22l2.54-1.47V270l-2.54,1.47,0,5c0,.4.1.63.3.72a.92.92,0,0,0,.78-.17,8.75,8.75,0,0,0,1.55-1.22V278a9.64,9.64,0,0,1-2.27,1.78c-1,.58-1.71.71-2.16.38s-.69-1-.69-2.18l0-5-1.18.68v-1.2l1.36-1.74.71-2.61Z"/><path class="cls-13" d="M701.42,266.8v1.38l-5.85,3.37c0,.8.24,1.31.63,1.54s.94.13,1.64-.27a11.09,11.09,0,0,0,1.55-1.09,15.17,15.17,0,0,0,1.52-1.5v2.2a11,11,0,0,1-1.38,1.35,13.35,13.35,0,0,1-1.8,1.22c-1.47.84-2.61,1-3.44.59s-1.23-1.52-1.24-3.22a9.65,9.65,0,0,1,1.13-4.71,8.08,8.08,0,0,1,3.15-3.25q1.92-1.11,3-.48C701.05,264.36,701.41,265.32,701.42,266.8Zm-5.8,2.83,3.48-2a1.61,1.61,0,0,0-.49-1.35,1.18,1.18,0,0,0-1.25.15,3.13,3.13,0,0,0-1.23,1.29,4.47,4.47,0,0,0-.51,1.92"/><path class="cls-13" d="M706.46,259.14a7.08,7.08,0,0,1,3.19-1l-.74,2.48a12,12,0,0,0-1.28.18,4.28,4.28,0,0,0-1.2.49c-.73.42-1.1.86-1.1,1.31a.42.42,0,0,0,.36.46,5.55,5.55,0,0,0,1.55-.07,4.74,4.74,0,0,1,1.56,0,1.2,1.2,0,0,1,.73.57,2.45,2.45,0,0,1,.24,1.2,5.15,5.15,0,0,1-1,3,8.74,8.74,0,0,1-2.89,2.51,10.09,10.09,0,0,1-1.69.82,4.55,4.55,0,0,1-1.31.3v-2.35a6,6,0,0,0,1.55-.27,6.8,6.8,0,0,0,1.52-.62c.9-.52,1.35-1.08,1.34-1.67,0-.23-.05-.38-.18-.45a1.34,1.34,0,0,0-.61-.12,9,9,0,0,0-1.17.06,4.23,4.23,0,0,1-1.54-.05,1.1,1.1,0,0,1-.72-.57,2.74,2.74,0,0,1-.23-1.24,4.59,4.59,0,0,1,.93-2.69A8.42,8.42,0,0,1,706.46,259.14Z"/><polygon class="cls-11" points="980.8 144.49 981.32 328.19 610.48 542.3 609.96 358.6 980.8 144.49"/><path class="cls-13" d="M648.77,391.12a8,8,0,0,1,3.5-1.14l-.64,2.25a7,7,0,0,0-2.91.88,4.27,4.27,0,0,0-1.47,1.34,2.91,2.91,0,0,0-.5,1.57,1.45,1.45,0,0,0,.2.83,1,1,0,0,0,.67.35,8.1,8.1,0,0,0,1.66,0,5.23,5.23,0,0,1,2,.06,1.6,1.6,0,0,1,.92.72,3.07,3.07,0,0,1,.3,1.49,6.46,6.46,0,0,1-1.17,3.63,9.71,9.71,0,0,1-3.26,2.94,7.47,7.47,0,0,1-3.4,1.22v-2.17a7.05,7.05,0,0,0,1.78-.32,7.8,7.8,0,0,0,1.75-.74,5.31,5.31,0,0,0,1.76-1.54,3,3,0,0,0,.55-1.72,1,1,0,0,0-.52-1,4.55,4.55,0,0,0-2.15-.06,3.06,3.06,0,0,1-2.36-.43,2.53,2.53,0,0,1-.69-2,6,6,0,0,1,1.08-3.4A8.51,8.51,0,0,1,648.77,391.12Z"/><path class="cls-13" d="M656.77,387.75v2.37l2.63-1.52v1.71l-2.64,1.52,0,5.7q0,.81.36,1a.93.93,0,0,0,.93-.15,8,8,0,0,0,1.44-1.08V399a6.56,6.56,0,0,1-.84.76,8.35,8.35,0,0,1-1.07.72c-1.85,1.08-2.79.48-2.8-1.77V393l-1.27.73v-1l1.35-1.61.67-2.63Z"/><path class="cls-13" d="M667.65,384.54c.6.24.91,1,.91,2.26l0,7.16-1.41.81-.4-1.25-.06,0a8.88,8.88,0,0,1-1.34,2.1,7.46,7.46,0,0,1-1.74,1.36c-.91.52-1.63.66-2.13.38s-.77-.92-.78-1.95a5.11,5.11,0,0,1,1.06-3.09,10.88,10.88,0,0,1,3.23-2.78l1.6-1V388c0-.69-.14-1.11-.42-1.29s-.71-.1-1.29.24a7.07,7.07,0,0,0-1.36,1c-.43.41-.85.84-1.25,1.29l-.64-1.25a14.2,14.2,0,0,1,1.65-1.64,11.26,11.26,0,0,1,1.69-1.21C666.16,384.51,667.05,384.3,667.65,384.54Zm-1,6.4V390l-1.19.74a7.36,7.36,0,0,0-2,1.7,3,3,0,0,0-.63,1.82c0,.48.13.77.37.89s.62,0,1.11-.25a4.75,4.75,0,0,0,1.72-1.67,4.4,4.4,0,0,0,.64-2.31"/><path class="cls-13" d="M676,378.83a5.69,5.69,0,0,1,1-.46l-.18,2.22a4,4,0,0,0-.87.38,5.16,5.16,0,0,0-1.91,2,5.36,5.36,0,0,0-.72,2.72v5.56l-2,1.13,0-10.63,1.54-.89.26,1.73.11-.06a8.85,8.85,0,0,1,1.19-2.21A5.51,5.51,0,0,1,676,378.83Z"/><path class="cls-13" d="M680.83,373.86v2.37l2.64-1.52v1.71l-2.64,1.52,0,5.69c0,.55.12.88.36,1a1,1,0,0,0,.94-.15,8.81,8.81,0,0,0,1.43-1.08v1.7a8.72,8.72,0,0,1-.85.76,8.59,8.59,0,0,1-1.06.72c-1.86,1.07-2.8.48-2.8-1.77l0-5.73-1.26.73v-1L679,377.2l.66-2.64Z"/><polygon class="cls-13" points="697.89 362.96 697.9 364.93 694.3 367 694.34 379.09 692.33 380.25 692.3 368.16 688.7 370.24 688.7 368.26 697.89 362.96"/><polygon class="cls-13" points="699.6 376.05 699.57 365.42 701.53 364.28 701.56 374.92 699.6 376.05"/><path class="cls-13" d="M700.56,363.27c-.36.2-.63.25-.83.14s-.29-.36-.29-.74a2.15,2.15,0,0,1,.29-1.1,2.1,2.1,0,0,1,.82-.8c.35-.2.61-.25.81-.14s.28.36.29.77a2.15,2.15,0,0,1-.29,1.07A2.19,2.19,0,0,1,700.56,363.27Z"/><path class="cls-13" d="M714.81,356.42c1.1-.64,1.91-.78,2.42-.43s.76,1.18.76,2.5l0,6.93-2,1.13,0-6.55a2.21,2.21,0,0,0-.4-1.59c-.28-.25-.69-.2-1.27.13a4,4,0,0,0-1.67,1.78,6.76,6.76,0,0,0-.53,2.84l0,5.63-2,1.14v-6.56a2.22,2.22,0,0,0-.41-1.58c-.27-.25-.69-.21-1.25.12a3.9,3.9,0,0,0-1.67,1.81,7.72,7.72,0,0,0-.53,3.14l0,5.3-2,1.13,0-10.63,1.54-.89.29,1.24.09-.06a6.18,6.18,0,0,1,1.12-1.82,6.5,6.5,0,0,1,1.6-1.35c1.43-.82,2.37-.81,2.84,0l.13-.07a7,7,0,0,1,1.15-1.9A6.65,6.65,0,0,1,714.81,356.42Z"/><path class="cls-13" d="M728.37,353.39v1.23l-6.16,3.56c0,1,.27,1.67.73,1.95s1.1.2,1.93-.28a11.22,11.22,0,0,0,1.53-1.06,15.46,15.46,0,0,0,1.51-1.46v1.83a11.8,11.8,0,0,1-1.45,1.4,14,14,0,0,1-1.68,1.13c-1.44.83-2.57,1-3.38.51s-1.23-1.6-1.24-3.28a10.06,10.06,0,0,1,1.12-4.75,8,8,0,0,1,3.11-3.29c1.22-.71,2.18-.83,2.89-.39S728.37,351.91,728.37,353.39Zm-6.13,3.13,4.2-2.42c0-.88-.2-1.43-.56-1.68s-.85-.18-1.47.18a4,4,0,0,0-1.5,1.55,5.62,5.62,0,0,0-.67,2.37"/><path class="cls-13" d="M736,352.36c.4-.23.71-.28.93-.14a1,1,0,0,1,.32.87,2.7,2.7,0,0,1-.32,1.28,2.49,2.49,0,0,1-.92.93c-.4.23-.71.27-.93.13s-.31-.44-.31-.9a2.42,2.42,0,0,1,.3-1.26A2.46,2.46,0,0,1,736,352.36Z"/><path class="cls-13" d="M736,347.09c-.4.23-.7.27-.92.13a1,1,0,0,1-.32-.9,2.34,2.34,0,0,1,1.24-2.17q.62-.36.93-.15c.21.14.31.43.32.89a2.59,2.59,0,0,1-.33,1.27A2.41,2.41,0,0,1,736,347.09Z"/><polygon class="cls-13" points="653.61 451.08 653.62 453.03 648.7 455.87 648.71 459.7 653.32 457.04 653.32 458.96 648.71 461.62 648.73 466.03 653.65 463.19 653.65 465.14 646.73 469.13 646.69 455.08 653.61 451.08"/><path class="cls-13" d="M660.87,450.13c2.21-1.28,3.33-.62,3.34,2l0,6.93-2,1.14,0-6.53a2.08,2.08,0,0,0-.43-1.59c-.29-.24-.75-.18-1.37.18a4.43,4.43,0,0,0-1.82,1.9,7.08,7.08,0,0,0-.57,3.17v5.3l-2,1.13,0-10.63,1.53-.88.29,1.23.09-.06a6.75,6.75,0,0,1,1.19-1.86A7.29,7.29,0,0,1,660.87,450.13Z"/><path class="cls-13" d="M672.81,439.1l2-1.15,0,15-1.54.89-.35-1.19-.09.05a6.61,6.61,0,0,1-2.76,3.18c-1.16.67-2.06.71-2.71.13s-1-1.75-1-3.49a10.58,10.58,0,0,1,1-4.64,6.78,6.78,0,0,1,2.72-3c1.21-.7,2.14-.72,2.78-.05l.1-.06a12.87,12.87,0,0,1-.15-1.73Zm.12,9.94v-.32a3.71,3.71,0,0,0-.57-2.52c-.39-.35-1-.29-1.79.18a3.92,3.92,0,0,0-1.6,1.89,7.56,7.56,0,0,0-.54,3.07,3.71,3.71,0,0,0,.55,2.39c.36.4.9.41,1.63,0a4.31,4.31,0,0,0,1.76-1.81,6.51,6.51,0,0,0,.56-2.87"/><polygon class="cls-13" points="690.08 430.03 690.09 432 686.49 434.07 686.53 446.16 684.53 447.31 684.5 435.23 680.89 437.31 680.89 435.33 690.08 430.03"/><polygon class="cls-13" points="691.79 443.12 691.76 432.49 693.73 431.36 693.75 441.99 691.79 443.12"/><path class="cls-13" d="M692.75,430.34c-.36.2-.63.25-.82.14s-.29-.36-.29-.74a2.07,2.07,0,0,1,.28-1.1,2.17,2.17,0,0,1,.82-.8c.35-.2.62-.25.81-.14s.29.36.29.76a2,2,0,0,1-.28,1.08A2.3,2.3,0,0,1,692.75,430.34Z"/><path class="cls-13" d="M707,423.5c1.11-.64,1.91-.79,2.42-.43s.76,1.17.76,2.49l0,6.93-2,1.13,0-6.55a2.22,2.22,0,0,0-.41-1.59q-.4-.36-1.26.12a4,4,0,0,0-1.68,1.8,6.72,6.72,0,0,0-.52,2.83l0,5.63-2,1.14v-6.55a2.28,2.28,0,0,0-.41-1.6c-.27-.24-.69-.2-1.26.13a4,4,0,0,0-1.67,1.81,7.61,7.61,0,0,0-.52,3.14v5.3l-2,1.13,0-10.63,1.55-.89.28,1.24.1-.06a5.94,5.94,0,0,1,1.11-1.82,6.32,6.32,0,0,1,1.61-1.34c1.42-.82,2.37-.81,2.83,0l.14-.08a6.67,6.67,0,0,1,1.14-1.89A6.45,6.45,0,0,1,707,423.5Z"/><path class="cls-13" d="M720.57,420.47v1.22l-6.17,3.56c0,1,.27,1.67.73,2s1.1.2,1.94-.29a10.7,10.7,0,0,0,1.53-1.06,16.67,16.67,0,0,0,1.51-1.46v1.83a11.85,11.85,0,0,1-1.46,1.4,13.26,13.26,0,0,1-1.68,1.13c-1.44.83-2.56,1-3.38.51s-1.22-1.59-1.23-3.29a10,10,0,0,1,1.12-4.74,8,8,0,0,1,3.1-3.28c1.22-.71,2.19-.84,2.9-.4S720.57,419,720.57,420.47Zm-6.13,3.12,4.2-2.42a2.07,2.07,0,0,0-.56-1.68q-.54-.36-1.47.18a3.9,3.9,0,0,0-1.5,1.54,5.56,5.56,0,0,0-.67,2.38"/><path class="cls-13" d="M737.11,414.3c.41-.23.72-.29.94-.15s.31.43.31.88a2.62,2.62,0,0,1-.31,1.27,2.44,2.44,0,0,1-.93.93c-.4.23-.71.28-.92.14a1,1,0,0,1-.32-.9,2.5,2.5,0,0,1,.31-1.26A2.37,2.37,0,0,1,737.11,414.3Z"/><path class="cls-13" d="M737.1,409c-.4.23-.71.28-.92.13s-.32-.44-.33-.9a2.36,2.36,0,0,1,1.24-2.17c.42-.24.73-.29.94-.15a1,1,0,0,1,.31.89,2.55,2.55,0,0,1-.32,1.27A2.35,2.35,0,0,1,737.1,409Z"/><polygon class="cls-13" points="911.1 230.57 911.21 268.67 764.41 353.43 764.3 315.32 911.1 230.57"/><polygon class="cls-13" points="961.52 202.21 961.63 240.31 920.92 263.82 920.82 225.71 961.52 202.21"/><polygon class="cls-13" points="961.52 261.2 961.63 299.3 920.92 322.8 920.82 284.7 961.52 261.2"/><polygon class="cls-13" points="911.1 292 911.21 330.1 764.41 414.86 764.3 376.75 911.1 292"/><path d="M867.5,277.36a3.21,3.21,0,0,1,.88,2.45,8.84,8.84,0,0,1-1.6,5,12.74,12.74,0,0,1-4.35,4q-2.88,1.67-4.48,1.16c-1.05-.34-1.58-1.37-1.59-3.11a8.58,8.58,0,0,1,.82-3.53,16.67,16.67,0,0,1,2.71-4,3.32,3.32,0,0,1-2.32-1,3.72,3.72,0,0,1-.7-2.39,7.63,7.63,0,0,1,1.51-4.39,12,12,0,0,1,3.94-3.6c1.68-1,3-1.29,4-1s1.47,1.24,1.47,2.72c0,2.08-1.08,4.38-3.25,6.87A4.31,4.31,0,0,1,867.5,277.36Zm-2.7,6.74a5,5,0,0,0,.86-2.74,1.69,1.69,0,0,0-.81-1.6,4.14,4.14,0,0,0-2.42-.33l-.35,0a14.55,14.55,0,0,0-2.3,3.1,5.64,5.64,0,0,0-.69,2.62c0,1,.29,1.55.88,1.75a3.19,3.19,0,0,0,2.41-.59,7,7,0,0,0,2.42-2.23m-5.17-9.5a2.05,2.05,0,0,0,.27,1.13,1.32,1.32,0,0,0,.77.59,5.22,5.22,0,0,0,1.72.13,13.11,13.11,0,0,0,2.05-2.74,4.86,4.86,0,0,0,.6-2.24q0-1.19-.75-1.44a2.5,2.5,0,0,0-2,.46,5.68,5.68,0,0,0-2,1.81,4,4,0,0,0-.72,2.3"/><path d="M872.86,278.67c.58-.34,1-.42,1.34-.22a1.41,1.41,0,0,1,.47,1.27,3.82,3.82,0,0,1-.46,1.83,3.57,3.57,0,0,1-1.34,1.36c-.58.33-1,.4-1.34.19s-.46-.63-.46-1.3a3.67,3.67,0,0,1,.45-1.82A3.38,3.38,0,0,1,872.86,278.67Z"/><path d="M872.83,271c-.58.34-1,.41-1.33.21a1.54,1.54,0,0,1-.47-1.32,3.39,3.39,0,0,1,1.79-3.13c.61-.35,1.06-.43,1.36-.22s.45.62.45,1.28a3.61,3.61,0,0,1-.46,1.83A3.41,3.41,0,0,1,872.83,271Z"/><path d="M883,256c1.78-1,3.18-1.4,4.18-1.1s1.51,1.23,1.51,2.78a8,8,0,0,1-1,3.79,10.94,10.94,0,0,1-2.76,3.33v.11c1.41-.62,2.48-.73,3.19-.32s1.07,1.27,1.08,2.62a9.67,9.67,0,0,1-1.79,5.56,15.21,15.21,0,0,1-5.13,4.56,11.28,11.28,0,0,1-5,1.77V276.2a8.39,8.39,0,0,0,2.39-.39,11,11,0,0,0,2.42-1.05,9.13,9.13,0,0,0,3.08-2.66,5.64,5.64,0,0,0,1-3.29c0-1.08-.39-1.67-1.13-1.75a7.08,7.08,0,0,0-3.54,1.28l-1.54.89v-2.66l1.56-.9c2.83-1.63,4.23-3.57,4.23-5.81,0-.87-.25-1.41-.74-1.59s-1.22,0-2.19.54a10.7,10.7,0,0,0-1.93,1.45,19.92,19.92,0,0,0-2.2,2.54l-1.4-1.48A17.84,17.84,0,0,1,883,256Z"/><path d="M902,247.69q1.53,1.8,1.55,6.94a22.16,22.16,0,0,1-1.46,8.73,10.76,10.76,0,0,1-4.53,5.2c-2,1.13-3.47,1.11-4.49-.08s-1.54-3.49-1.55-6.91a22.21,22.21,0,0,1,1.46-8.79,10.69,10.69,0,0,1,4.52-5.16Q900.42,245.91,902,247.69Zm-2.06,14.95a20.73,20.73,0,0,0,.74-6.35q0-4.1-.78-5.48c-.5-.93-1.3-1.09-2.4-.46a5.53,5.53,0,0,0-2.37,3.17,21.5,21.5,0,0,0-.73,6.39q0,4.15.77,5.51c.5.9,1.29,1,2.38.41a5.53,5.53,0,0,0,2.39-3.19"/><path d="M868.48,325.63v2.92l-6.69,3.86-.39,5.26,1-.78a14.3,14.3,0,0,1,1.49-1c1.79-1,3.2-1.31,4.24-.82s1.58,1.66,1.58,3.53a11.35,11.35,0,0,1-1.76,6.12,14.06,14.06,0,0,1-5,4.74q-3,1.71-4.66,1.59v-3a6.21,6.21,0,0,0,2.26-.31,11.81,11.81,0,0,0,2.35-1,8.32,8.32,0,0,0,2.93-2.68,6.23,6.23,0,0,0,1-3.48q0-3.64-4.06-1.31a16,16,0,0,0-1.4.95c-.56.4-1,.79-1.46,1.14l-1.27-.13.64-10.33Z"/><path d="M874.43,338.73c.59-.34,1-.41,1.34-.21a1.41,1.41,0,0,1,.47,1.27,3.71,3.71,0,0,1-.46,1.83,3.41,3.41,0,0,1-1.34,1.35c-.58.34-1,.41-1.33.2s-.47-.63-.47-1.3a3.54,3.54,0,0,1,.46-1.82A3.44,3.44,0,0,1,874.43,338.73Z"/><path d="M874.41,331.09c-.58.33-1,.41-1.34.2a1.5,1.5,0,0,1-.46-1.31,3.35,3.35,0,0,1,1.79-3.13c.6-.35,1.06-.43,1.35-.23a1.46,1.46,0,0,1,.46,1.28,3.82,3.82,0,0,1-.47,1.85A3.49,3.49,0,0,1,874.41,331.09Z"/><path d="M884.54,316.07c1.79-1,3.18-1.39,4.19-1.09s1.5,1.23,1.51,2.78a8,8,0,0,1-1,3.79,11,11,0,0,1-2.75,3.32V325c1.42-.61,2.49-.72,3.2-.31s1.07,1.27,1.07,2.62a9.6,9.6,0,0,1-1.79,5.56,15.31,15.31,0,0,1-5.13,4.56,11.38,11.38,0,0,1-5,1.77v-2.91a8.75,8.75,0,0,0,2.38-.39,11.09,11.09,0,0,0,2.43-1.05,9.3,9.3,0,0,0,3.07-2.66,5.59,5.59,0,0,0,1-3.29c0-1.09-.38-1.67-1.14-1.75a7,7,0,0,0-3.53,1.28l-1.54.89v-2.66l1.57-.9q4.23-2.44,4.22-5.81c0-.88-.24-1.41-.74-1.6a2.79,2.79,0,0,0-2.18.55,10.77,10.77,0,0,0-1.94,1.45,19.92,19.92,0,0,0-2.2,2.54l-1.4-1.47A17.8,17.8,0,0,1,884.54,316.07Z"/><path d="M903.52,307.76q1.53,1.8,1.55,6.94a22.16,22.16,0,0,1-1.46,8.73,10.59,10.59,0,0,1-4.53,5.19c-2,1.14-3.46,1.11-4.48-.07s-1.54-3.49-1.55-6.91a22,22,0,0,1,1.46-8.79,10.62,10.62,0,0,1,4.51-5.16Q902,306,903.52,307.76Zm-2.06,14.95a20.73,20.73,0,0,0,.74-6.35q0-4.1-.77-5.49t-2.4-.45a5.44,5.44,0,0,0-2.37,3.17,20.81,20.81,0,0,0-.73,6.39q0,4.15.76,5.51c.5.89,1.3,1,2.38.41a5.56,5.56,0,0,0,2.39-3.19"/><path d="M931.12,229.68,937,244.17l-2.68,1.55-1.56-4-5.91,3.41-1.49,5.8-2.66,1.54,5.72-21.16Zm-3.59,12.48,4.51-2.6-1.47-4c-.1-.27-.25-.69-.44-1.28s-.32-1-.39-1.31c-.18,1.11-.46,2.35-.82,3.75l-1.39,5.43"/><path d="M954.84,216.06l0,17.75-2.43,1.4,0-8.78c0-.88,0-2,0-3.48s.07-2.32.09-2.63l-.08.05-4.6,17.48-2.23,1.29-4.52-12.24-.09,0c.13,2.13.19,4.16.2,6.08l0,8.64L939,243l0-17.75,3.56-2.06,4.33,11.65.07,0,4.38-16.67Z"/><path d="M933.63,289.48c1,.36,1.45,1.42,1.46,3.18a9.27,9.27,0,0,1-1.57,5.18,13.22,13.22,0,0,1-4.51,4.09l-1.6.92v6.64L924.9,311l0-17.75,4.45-2.57C931.22,289.52,932.67,289.13,933.63,289.48Zm-2,7.73a5,5,0,0,0,.9-2.95c0-1-.28-1.62-.82-1.81s-1.39,0-2.54.71l-1.75,1,0,6.24,1.34-.77a8.6,8.6,0,0,0,2.85-2.43"/><path d="M954.06,276.33l.05,17.76-2.42,1.4,0-8.79c0-.88,0-2,.05-3.48s.06-2.31.09-2.63l-.09.05-4.59,17.48-2.23,1.29-4.52-12.24-.09.05q.19,3.19.2,6.09l0,8.63-2.3,1.33-.05-17.76,3.56-2.05,4.33,11.64.06,0,4.38-16.68Z"/><path class="cls-11" d="M918.44,379.37c5.87-3.39,10.64-.67,10.66,6.07l.1,37.71c0,6.75-4.72,15-10.58,18.35l-190,109.67c-5.86,3.39-10.64.67-10.66-6.07l-.1-37.72c0-6.73,4.72-14.95,10.59-18.33Z"/><path class="cls-13" d="M769,484.94a13.47,13.47,0,0,1,6.49-2.06l-1.34,4.36a16,16,0,0,0-2.45.3,9.59,9.59,0,0,0-2.72,1.1,12.8,12.8,0,0,0-5.06,5.55,18.19,18.19,0,0,0-1.82,8.31c0,3.23.61,5.32,1.79,6.3s2.91.81,5.15-.49a20.7,20.7,0,0,0,2.82-2q1.36-1.11,2.82-2.49l0,3.69a28.51,28.51,0,0,1-6.11,4.69q-5,2.89-7.72,1t-2.72-8.46a24.23,24.23,0,0,1,1.29-7.93,22.51,22.51,0,0,1,3.76-6.89A20.73,20.73,0,0,1,769,484.94Z"/><path class="cls-13" d="M791,480.34c1.13.46,1.7,1.87,1.7,4.23l0,13.39-2.63,1.52-.74-2.34-.13.07a16.71,16.71,0,0,1-2.51,3.93,13.61,13.61,0,0,1-3.26,2.54c-1.7,1-3,1.22-4,.72s-1.43-1.73-1.44-3.66a9.68,9.68,0,0,1,2-5.78,20.9,20.9,0,0,1,6.06-5.21l3-1.83v-1.07q0-1.91-.78-2.4c-.52-.33-1.32-.19-2.4.44a13.74,13.74,0,0,0-2.55,1.92c-.81.77-1.6,1.59-2.35,2.42l-1.2-2.33a26.27,26.27,0,0,1,3.08-3.07,22.28,22.28,0,0,1,3.16-2.26Q789.31,479.67,791,480.34Zm-2,12V490.6L786.79,492a13.73,13.73,0,0,0-3.78,3.18,5.58,5.58,0,0,0-1.17,3.4c0,.89.23,1.45.7,1.67s1.15.06,2.07-.47a8.92,8.92,0,0,0,3.2-3.14,8.09,8.09,0,0,0,1.21-4.31"/><polygon class="cls-13" points="801.45 464.9 801.53 492.88 797.86 495 797.78 467.02 801.45 464.9"/><path class="cls-13" d="M814,465.39a11.19,11.19,0,0,1,4.94-1.68l-1.1,4.05a10.4,10.4,0,0,0-3.86,1.17c-3,1.73-4.48,4.88-4.47,9.45,0,2.23.38,3.69,1.13,4.38s1.84.62,3.29-.21a17.27,17.27,0,0,0,4.64-4.09v3.69a15.49,15.49,0,0,1-2.1,2.17,20,20,0,0,1-2.72,1.85c-2.61,1.51-4.61,1.79-6,.81s-2.06-3.09-2.07-6.38a18.31,18.31,0,0,1,2.11-8.94A15.82,15.82,0,0,1,814,465.39Z"/><path class="cls-13" d="M837.71,452.07l.06,19.89-2.9,1.67-.53-2.3-.18.1a13,13,0,0,1-5.41,6.09c-2.1,1.22-3.66,1.52-4.7.92s-1.56-2.13-1.56-4.56l0-13,3.71-2.14,0,12.26c0,1.52.28,2.51.83,3s1.39.34,2.55-.33a8.23,8.23,0,0,0,3.4-3.55,13.55,13.55,0,0,0,1.07-6l0-9.91Z"/><polygon class="cls-13" points="846.61 438.83 846.69 466.81 843.01 468.93 842.93 440.95 846.61 438.83"/><path class="cls-13" d="M863.67,438.37c1.12.47,1.69,1.87,1.7,4.23l0,13.4-2.64,1.52-.74-2.34-.12.07a17.26,17.26,0,0,1-2.51,3.93,13.59,13.59,0,0,1-3.26,2.53q-2.55,1.47-4,.72c-1-.5-1.43-1.73-1.44-3.66a9.63,9.63,0,0,1,2-5.78,21.05,21.05,0,0,1,6.06-5.21l3-1.83v-1.06c0-1.27-.26-2.07-.78-2.41s-1.32-.18-2.41.45a13.58,13.58,0,0,0-2.54,1.92c-.82.77-1.6,1.58-2.35,2.42l-1.2-2.34a25.43,25.43,0,0,1,3.08-3.06,22.42,22.42,0,0,1,3.16-2.27Q862,437.69,863.67,438.37Zm-2,12v-1.72L859.48,450a13.91,13.91,0,0,0-3.78,3.18,5.59,5.59,0,0,0-1.17,3.41c0,.89.23,1.44.69,1.66s1.16.06,2.07-.46a8.89,8.89,0,0,0,3.21-3.15,8.09,8.09,0,0,0,1.21-4.31"/><path class="cls-13" d="M874.51,426.39v4.42l4.93-2.84v3.2L874.53,434l0,10.66c0,1,.23,1.64.67,1.86a1.81,1.81,0,0,0,1.75-.27,14.55,14.55,0,0,0,2.69-2.05v3.19a14.53,14.53,0,0,1-1.57,1.42,16.4,16.4,0,0,1-2,1.36q-5.22,3-5.24-3.31l0-10.72-2.37,1.36v-1.87l2.53-3,1.24-4.94Z"/><path class="cls-13" d="M897.4,426.23v2.29l-11.54,6.66c0,1.9.51,3.12,1.37,3.67s2.07.36,3.63-.54a20.64,20.64,0,0,0,2.85-2,28.44,28.44,0,0,0,2.84-2.75V437a22.8,22.8,0,0,1-2.72,2.62,25.75,25.75,0,0,1-3.15,2.12c-2.69,1.55-4.8,1.87-6.32.93s-2.29-3-2.3-6.13a18.7,18.7,0,0,1,2.09-8.88,15,15,0,0,1,5.8-6.14c2.28-1.32,4.09-1.56,5.42-.74S897.39,423.44,897.4,426.23Zm-11.48,5.86,7.86-4.54c0-1.63-.38-2.68-1-3.14s-1.6-.35-2.76.33a7.47,7.47,0,0,0-2.81,2.9,10.68,10.68,0,0,0-1.25,4.45"/></g></g></g></svg>